<svg width="319" height="160" viewBox="0 0 319 160" fill="none" xmlns="http://www.w3.org/2000/svg">
<g filter="url(#filter0_d_36_11)">
<line x1="4.5" y1="-4.5" x2="17.2416" y2="-4.5" transform="matrix(0.774312 -0.632804 0.792917 0.60933 210.705 82.7106)" stroke="#111827" stroke-width="9" stroke-linecap="round"/>
</g>
<g filter="url(#filter1_d_36_11)">
<path d="M269.101 95.0219C265.188 96.9754 259.785 96.1712 257.033 93.2257L219.461 53.012C218.006 51.4551 217.528 49.5247 218.152 47.7275L225.187 27.4562C226.241 24.4197 230.156 22.4651 234.409 22.8524L262.8 25.4383C265.317 25.6676 267.603 26.6956 269.058 28.2525L306.63 68.4662C309.382 71.4117 308.441 75.3831 304.528 77.3366L269.101 95.0219Z" fill="#F5F5F5"/>
<path d="M248.179 42.5412C248.507 41.1991 247.667 39.9389 246.304 39.7265C244.94 39.5141 243.569 40.4299 243.241 41.7719L243.236 41.7946C242.908 43.1367 243.748 44.3969 245.111 44.6093C246.475 44.8217 247.846 43.906 248.173 42.5639L248.179 42.5412ZM258.975 91.4972L221.403 51.2835C220.402 50.2127 220.276 49.1394 220.552 48.3427L227.588 28.0715C228.073 26.6722 230.383 24.975 233.975 25.3022L262.366 27.888C264.377 28.0711 266.097 28.8904 267.116 29.981L304.688 70.1946C305.631 71.2033 305.777 72.1821 305.606 72.9053C305.434 73.6286 304.85 74.4985 303.51 75.1675L268.083 92.8529C266.712 93.5374 264.955 93.7883 263.208 93.5283C261.462 93.2683 259.939 92.5293 258.975 91.4972Z" stroke="white" stroke-width="5" stroke-linecap="round" stroke-linejoin="round"/>
</g>
<g filter="url(#filter2_d_36_11)">
<path d="M55.5088 11.0012L95.4914 77.7075" stroke="#111827" stroke-width="9" stroke-linecap="round"/>
</g>
<g filter="url(#filter3_d_36_11)">
<path d="M95.4914 77.7076H208.074" stroke="#111827" stroke-width="9" stroke-linecap="round"/>
</g>
<g filter="url(#filter4_d_36_11)">
<path d="M83.3914 19.7564L217.018 19.7564" stroke="#111827" stroke-width="9" stroke-linecap="round"/>
</g>
<g filter="url(#filter5_d_36_11)">
<path d="M94.9653 39.7683L141.787 40.1852" stroke="#111827" stroke-width="9" stroke-linecap="round"/>
</g>
<g filter="url(#filter6_d_36_11)">
<path d="M104.435 60.6141L141.787 61.031" stroke="#111827" stroke-width="9" stroke-linecap="round"/>
</g>
<g filter="url(#filter7_d_36_11)">
<path d="M164.935 39.3514L196.5 40.1852" stroke="#111827" stroke-width="9" stroke-linecap="round"/>
</g>
<g filter="url(#filter8_d_36_11)">
<path d="M164.935 61.0309L199.657 61.0309" stroke="#111827" stroke-width="9" stroke-linecap="round"/>
</g>
<g filter="url(#filter9_d_36_11)">
<path d="M267.672 89.3642C264.345 91.0218 259.825 90.2957 257.575 87.7426L226.864 52.8858C225.675 51.5362 225.313 49.8712 225.874 48.3278L232.204 30.9184C233.152 28.3106 236.48 26.6521 240.043 27.012L263.829 29.4151C265.938 29.6281 267.836 30.5274 269.025 31.877L299.737 66.7338C301.986 69.2869 301.113 72.7004 297.787 74.3579L267.672 89.3642Z" fill="#34D399"/>
<path d="M249.131 43.7028L249.126 43.7223M232.204 30.9184L225.874 48.3278C225.313 49.8712 225.675 51.5362 226.864 52.8858L257.575 87.7426C259.825 90.2957 264.345 91.0218 267.672 89.3642L297.787 74.3579C301.113 72.7004 301.986 69.2869 299.737 66.7338L269.025 31.877C267.836 30.5274 265.938 29.6281 263.829 29.4151L240.043 27.012C236.48 26.6521 233.152 28.3106 232.204 30.9184Z" stroke="#111827" stroke-width="6" stroke-linecap="round" stroke-linejoin="round"/>
</g>
<path d="M219.733 21.6109C250.373 15.1896 252.477 33.117 250.373 42.7061" stroke="white" stroke-width="10" stroke-linecap="round" stroke-linejoin="round"/>
<path d="M219.733 21.6109C250.373 15.1896 252.477 33.117 250.373 42.7061" stroke="#111827" stroke-width="5" stroke-linecap="round" stroke-linejoin="round"/>
<g filter="url(#filter10_d_36_11)">
<path d="M99.9591 125.99C99.8824 125.217 99.5533 124.616 98.9716 124.188C98.3899 123.759 97.6005 123.545 96.6033 123.545C95.9258 123.545 95.3537 123.641 94.8871 123.833C94.4204 124.018 94.0625 124.277 93.8132 124.609C93.5703 124.942 93.4489 125.319 93.4489 125.741C93.4361 126.092 93.5096 126.399 93.6694 126.661C93.8356 126.923 94.0625 127.15 94.3501 127.342C94.6378 127.527 94.9702 127.69 95.3473 127.831C95.7244 127.965 96.1271 128.08 96.5554 128.176L98.3196 128.598C99.1761 128.79 99.9623 129.046 100.678 129.365C101.394 129.685 102.014 130.078 102.538 130.544C103.062 131.011 103.468 131.561 103.756 132.194C104.05 132.826 104.2 133.552 104.207 134.37C104.2 135.572 103.893 136.614 103.286 137.496C102.685 138.372 101.816 139.052 100.678 139.538C99.5469 140.017 98.1822 140.257 96.5841 140.257C94.9989 140.257 93.6182 140.014 92.4421 139.528C91.2724 139.043 90.3583 138.324 89.6999 137.371C89.0479 136.412 88.706 135.227 88.674 133.814H92.6914C92.7361 134.472 92.9247 135.022 93.2571 135.463C93.5959 135.898 94.0465 136.227 94.609 136.451C95.1779 136.668 95.8203 136.777 96.5362 136.777C97.2393 136.777 97.8498 136.674 98.3675 136.47C98.8917 136.265 99.2976 135.981 99.5852 135.617C99.8729 135.252 100.017 134.834 100.017 134.361C100.017 133.919 99.8856 133.549 99.6236 133.248C99.3679 132.948 98.9908 132.692 98.4922 132.481C98 132.27 97.3959 132.079 96.68 131.906L94.5419 131.369C92.8863 130.966 91.5792 130.337 90.6204 129.48C89.6616 128.624 89.1854 127.47 89.1917 126.019C89.1854 124.83 89.5018 123.791 90.141 122.903C90.7866 122.014 91.6719 121.321 92.7969 120.822C93.9219 120.324 95.2003 120.074 96.6321 120.074C98.0895 120.074 99.3615 120.324 100.448 120.822C101.541 121.321 102.391 122.014 102.999 122.903C103.606 123.791 103.919 124.82 103.938 125.99H99.9591ZM111.007 131.465V139.979H106.922V120.343H110.892V127.85H111.065C111.397 126.981 111.934 126.3 112.675 125.808C113.417 125.309 114.347 125.06 115.465 125.06C116.488 125.06 117.38 125.284 118.141 125.731C118.908 126.172 119.502 126.808 119.924 127.639C120.352 128.464 120.563 129.451 120.557 130.602V139.979H116.472V131.331C116.479 130.423 116.248 129.717 115.782 129.212C115.322 128.707 114.676 128.454 113.845 128.454C113.289 128.454 112.797 128.573 112.369 128.809C111.947 129.046 111.614 129.391 111.371 129.845C111.135 130.292 111.013 130.832 111.007 131.465ZM130.425 140.267C128.936 140.267 127.648 139.95 126.561 139.318C125.481 138.678 124.647 137.79 124.059 136.652C123.471 135.508 123.177 134.182 123.177 132.673C123.177 131.152 123.471 129.822 124.059 128.684C124.647 127.54 125.481 126.652 126.561 126.019C127.648 125.38 128.936 125.06 130.425 125.06C131.915 125.06 133.199 125.38 134.28 126.019C135.366 126.652 136.204 127.54 136.792 128.684C137.38 129.822 137.674 131.152 137.674 132.673C137.674 134.182 137.38 135.508 136.792 136.652C136.204 137.79 135.366 138.678 134.28 139.318C133.199 139.95 131.915 140.267 130.425 140.267ZM130.444 137.103C131.122 137.103 131.688 136.911 132.141 136.527C132.595 136.138 132.937 135.607 133.167 134.936C133.404 134.265 133.522 133.501 133.522 132.644C133.522 131.788 133.404 131.024 133.167 130.353C132.937 129.682 132.595 129.151 132.141 128.761C131.688 128.371 131.122 128.176 130.444 128.176C129.76 128.176 129.185 128.371 128.719 128.761C128.258 129.151 127.91 129.682 127.673 130.353C127.443 131.024 127.328 131.788 127.328 132.644C127.328 133.501 127.443 134.265 127.673 134.936C127.91 135.607 128.258 136.138 128.719 136.527C129.185 136.911 129.76 137.103 130.444 137.103ZM140.33 145.502V125.252H144.357V127.726H144.539C144.718 127.329 144.977 126.927 145.316 126.517C145.661 126.102 146.108 125.757 146.658 125.482C147.214 125.201 147.904 125.06 148.729 125.06C149.803 125.06 150.793 125.341 151.701 125.904C152.609 126.46 153.334 127.301 153.878 128.426C154.421 129.544 154.693 130.947 154.693 132.635C154.693 134.277 154.427 135.664 153.897 136.796C153.373 137.921 152.657 138.774 151.749 139.356C150.848 139.931 149.838 140.219 148.719 140.219C147.927 140.219 147.252 140.088 146.696 139.826C146.146 139.564 145.696 139.234 145.344 138.838C144.993 138.435 144.724 138.03 144.539 137.62H144.414V145.502H140.33ZM144.328 132.615C144.328 133.491 144.449 134.255 144.692 134.907C144.935 135.559 145.287 136.067 145.747 136.432C146.207 136.789 146.766 136.968 147.425 136.968C148.09 136.968 148.652 136.786 149.112 136.422C149.573 136.051 149.921 135.54 150.157 134.888C150.4 134.229 150.522 133.472 150.522 132.615C150.522 131.765 150.404 131.017 150.167 130.372C149.931 129.726 149.582 129.221 149.122 128.857C148.662 128.493 148.096 128.31 147.425 128.31C146.76 128.31 146.198 128.486 145.737 128.838C145.284 129.189 144.935 129.688 144.692 130.334C144.449 130.979 144.328 131.74 144.328 132.615Z" fill="#111827"/>
</g>
<g filter="url(#filter11_d_36_11)">
<path d="M159.803 139.979V120.343H173.034V123.766H163.954V128.445H172.353V131.868H163.954V136.556H173.072V139.979H159.803ZM180.458 140.257C179.518 140.257 178.681 140.094 177.946 139.768C177.21 139.436 176.629 138.947 176.201 138.301C175.779 137.649 175.568 136.837 175.568 135.866C175.568 135.048 175.718 134.361 176.018 133.804C176.319 133.248 176.728 132.801 177.246 132.462C177.763 132.123 178.351 131.868 179.01 131.695C179.675 131.522 180.371 131.401 181.1 131.331C181.957 131.241 182.647 131.158 183.171 131.081C183.695 130.998 184.076 130.877 184.312 130.717C184.549 130.557 184.667 130.321 184.667 130.008V129.95C184.667 129.343 184.475 128.873 184.092 128.541C183.714 128.208 183.177 128.042 182.481 128.042C181.746 128.042 181.161 128.205 180.726 128.531C180.291 128.851 180.004 129.253 179.863 129.739L176.085 129.432C176.277 128.537 176.654 127.764 177.217 127.112C177.779 126.454 178.505 125.949 179.393 125.597C180.288 125.239 181.324 125.06 182.5 125.06C183.318 125.06 184.101 125.156 184.849 125.348C185.603 125.539 186.271 125.837 186.853 126.239C187.441 126.642 187.904 127.16 188.243 127.793C188.582 128.419 188.751 129.17 188.751 130.046V139.979H184.878V137.937H184.763C184.526 138.397 184.21 138.803 183.813 139.155C183.417 139.5 182.941 139.771 182.385 139.97C181.829 140.161 181.186 140.257 180.458 140.257ZM181.627 137.438C182.228 137.438 182.759 137.32 183.219 137.084C183.679 136.841 184.04 136.515 184.302 136.106C184.565 135.696 184.696 135.233 184.696 134.715V133.152C184.568 133.236 184.392 133.312 184.168 133.383C183.951 133.446 183.705 133.507 183.43 133.565C183.155 133.616 182.88 133.664 182.605 133.709C182.331 133.747 182.081 133.782 181.858 133.814C181.378 133.884 180.959 133.996 180.601 134.15C180.244 134.303 179.965 134.511 179.767 134.773C179.569 135.028 179.47 135.348 179.47 135.732C179.47 136.288 179.671 136.713 180.074 137.007C180.483 137.294 181.001 137.438 181.627 137.438ZM204.174 129.451L200.434 129.682C200.37 129.362 200.233 129.074 200.022 128.819C199.811 128.557 199.533 128.349 199.188 128.195C198.849 128.036 198.443 127.956 197.97 127.956C197.337 127.956 196.804 128.09 196.369 128.358C195.934 128.62 195.717 128.972 195.717 129.413C195.717 129.765 195.858 130.062 196.139 130.305C196.42 130.548 196.903 130.743 197.587 130.89L200.252 131.427C201.684 131.721 202.752 132.194 203.455 132.846C204.158 133.498 204.509 134.354 204.509 135.415C204.509 136.38 204.225 137.227 203.656 137.956C203.093 138.685 202.32 139.254 201.336 139.663C200.358 140.065 199.229 140.267 197.951 140.267C196.002 140.267 194.448 139.861 193.291 139.049C192.141 138.231 191.466 137.119 191.268 135.712L195.286 135.501C195.407 136.096 195.701 136.55 196.168 136.863C196.634 137.17 197.232 137.323 197.961 137.323C198.677 137.323 199.252 137.186 199.687 136.911C200.128 136.63 200.351 136.269 200.358 135.827C200.351 135.457 200.195 135.153 199.888 134.917C199.581 134.674 199.108 134.488 198.469 134.361L195.918 133.852C194.48 133.565 193.41 133.066 192.706 132.357C192.01 131.647 191.661 130.743 191.661 129.643C191.661 128.697 191.917 127.882 192.428 127.198C192.946 126.514 193.672 125.987 194.605 125.616C195.544 125.245 196.644 125.06 197.903 125.06C199.763 125.06 201.227 125.453 202.294 126.239C203.368 127.026 203.995 128.096 204.174 129.451ZM213.793 140.267C212.278 140.267 210.974 139.96 209.881 139.346C208.794 138.726 207.957 137.851 207.369 136.719C206.781 135.581 206.487 134.236 206.487 132.683C206.487 131.168 206.781 129.838 207.369 128.694C207.957 127.55 208.785 126.658 209.852 126.019C210.926 125.38 212.185 125.06 213.63 125.06C214.602 125.06 215.506 125.217 216.343 125.53C217.187 125.837 217.922 126.3 218.549 126.92C219.181 127.54 219.674 128.32 220.025 129.26C220.377 130.193 220.553 131.286 220.553 132.539V133.661H208.117V131.129H216.708C216.708 130.541 216.58 130.02 216.324 129.566C216.069 129.113 215.714 128.758 215.26 128.502C214.813 128.24 214.292 128.109 213.697 128.109C213.077 128.109 212.527 128.253 212.048 128.541C211.575 128.822 211.204 129.202 210.936 129.682C210.667 130.155 210.53 130.682 210.523 131.264V133.67C210.523 134.399 210.658 135.028 210.926 135.559C211.201 136.09 211.588 136.499 212.086 136.786C212.585 137.074 213.176 137.218 213.86 137.218C214.314 137.218 214.729 137.154 215.107 137.026C215.484 136.898 215.806 136.706 216.075 136.451C216.343 136.195 216.548 135.882 216.689 135.511L220.466 135.76C220.275 136.668 219.881 137.461 219.287 138.138C218.699 138.809 217.938 139.334 217.005 139.711C216.078 140.081 215.007 140.267 213.793 140.267Z" fill="#34D399"/>
</g>
<g filter="url(#filter12_d_36_11)">
<path d="M242.593 55.2623L262.994 78.6099" stroke="white" stroke-width="6" stroke-linecap="round"/>
</g>
<g filter="url(#filter13_d_36_11)">
<path d="M261.813 45.0055L283.16 69.2634" stroke="white" stroke-width="6" stroke-linecap="round"/>
</g>
<g filter="url(#filter14_d_36_11)">
<path d="M252.75 50.202L273.05 74.3795" stroke="white" stroke-width="6" stroke-linecap="round"/>
</g>
<g filter="url(#filter15_d_36_11)">
<rect width="4.77491" height="3.77434" transform="matrix(0.799276 0.600964 -0.76749 0.641061 152.049 37.6838)" fill="#333333"/>
<rect x="0.0299928" y="1.17196" width="2.88774" height="1.88717" transform="matrix(0.799276 0.600964 -0.76749 0.641061 152.955 38.0864)" stroke="#111827" stroke-width="1.88717"/>
</g>
<g filter="url(#filter16_d_36_11)">
<rect width="4.77491" height="3.77434" transform="matrix(0.799276 0.600964 -0.76749 0.641061 152.049 58.5295)" fill="#333333"/>
<rect x="0.0299928" y="1.17196" width="2.88774" height="1.88717" transform="matrix(0.799276 0.600964 -0.76749 0.641061 152.955 58.9321)" stroke="#111827" stroke-width="1.88717"/>
</g>
<g filter="url(#filter17_d_36_11)">
<ellipse cx="131.791" cy="96.0519" rx="15.7826" ry="13.7582" fill="white"/>
<path d="M144.074 96.0519C144.074 101.282 139.042 106.31 131.791 106.31C124.541 106.31 119.509 101.282 119.509 96.0519C119.509 90.8222 124.541 85.7937 131.791 85.7937C139.042 85.7937 144.074 90.8222 144.074 96.0519Z" stroke="#111827" stroke-width="7"/>
</g>
<g filter="url(#filter18_d_36_11)">
<ellipse cx="181.244" cy="96.0519" rx="15.7826" ry="13.7582" fill="white"/>
<path d="M193.526 96.0519C193.526 101.282 188.494 106.31 181.244 106.31C173.994 106.31 168.961 101.282 168.961 96.0519C168.961 90.8222 173.994 85.7937 181.244 85.7937C188.494 85.7937 193.526 90.8222 193.526 96.0519Z" stroke="#111827" stroke-width="7"/>
</g>
<g filter="url(#filter19_d_36_11)">
<path d="M15 11.4182L54.9826 10.5843" stroke="#111827" stroke-width="9" stroke-linecap="round"/>
</g>
<defs>
<filter id="filter0_d_36_11" x="197.634" y="61.1049" width="35.8405" height="31.9692" filterUnits="userSpaceOnUse" color-interpolation-filters="sRGB">
<feFlood flood-opacity="0" result="BackgroundImageFix"/>
<feColorMatrix in="SourceAlpha" type="matrix" values="0 0 0 0 0 0 0 0 0 0 0 0 0 0 0 0 0 0 127 0" result="hardAlpha"/>
<feOffset dy="4"/>
<feGaussianBlur stdDeviation="4"/>
<feComposite in2="hardAlpha" operator="out"/>
<feColorMatrix type="matrix" values="0 0 0 0 1 0 0 0 0 1 0 0 0 0 1 0 0 0 1 0"/>
<feBlend mode="normal" in2="BackgroundImageFix" result="effect1_dropShadow_36_11"/>
<feBlend mode="normal" in="SourceGraphic" in2="effect1_dropShadow_36_11" result="shape"/>
</filter>
<filter id="filter1_d_36_11" x="207.884" y="16.8036" width="110.324" height="93.2853" filterUnits="userSpaceOnUse" color-interpolation-filters="sRGB">
<feFlood flood-opacity="0" result="BackgroundImageFix"/>
<feColorMatrix in="SourceAlpha" type="matrix" values="0 0 0 0 0 0 0 0 0 0 0 0 0 0 0 0 0 0 127 0" result="hardAlpha"/>
<feOffset dy="4"/>
<feGaussianBlur stdDeviation="5"/>
<feComposite in2="hardAlpha" operator="out"/>
<feColorMatrix type="matrix" values="0 0 0 0 1 0 0 0 0 1 0 0 0 0 1 0 0 0 1 0"/>
<feBlend mode="normal" in2="BackgroundImageFix" result="effect1_dropShadow_36_11"/>
<feBlend mode="normal" in="SourceGraphic" in2="effect1_dropShadow_36_11" result="shape"/>
</filter>
<filter id="filter2_d_36_11" x="40.7028" y="0.827393" width="69.5947" height="95.0538" filterUnits="userSpaceOnUse" color-interpolation-filters="sRGB">
<feFlood flood-opacity="0" result="BackgroundImageFix"/>
<feColorMatrix in="SourceAlpha" type="matrix" values="0 0 0 0 0 0 0 0 0 0 0 0 0 0 0 0 0 0 127 0" result="hardAlpha"/>
<feOffset dy="4"/>
<feGaussianBlur stdDeviation="5"/>
<feComposite in2="hardAlpha" operator="out"/>
<feColorMatrix type="matrix" values="0 0 0 0 1 0 0 0 0 1 0 0 0 0 1 0 0 0 1 0"/>
<feBlend mode="normal" in2="BackgroundImageFix" result="effect1_dropShadow_36_11"/>
<feBlend mode="normal" in="SourceGraphic" in2="effect1_dropShadow_36_11" result="shape"/>
</filter>
<filter id="filter3_d_36_11" x="80.9914" y="67.2076" width="141.583" height="29" filterUnits="userSpaceOnUse" color-interpolation-filters="sRGB">
<feFlood flood-opacity="0" result="BackgroundImageFix"/>
<feColorMatrix in="SourceAlpha" type="matrix" values="0 0 0 0 0 0 0 0 0 0 0 0 0 0 0 0 0 0 127 0" result="hardAlpha"/>
<feOffset dy="4"/>
<feGaussianBlur stdDeviation="5"/>
<feComposite in2="hardAlpha" operator="out"/>
<feColorMatrix type="matrix" values="0 0 0 0 1 0 0 0 0 1 0 0 0 0 1 0 0 0 1 0"/>
<feBlend mode="normal" in2="BackgroundImageFix" result="effect1_dropShadow_36_11"/>
<feBlend mode="normal" in="SourceGraphic" in2="effect1_dropShadow_36_11" result="shape"/>
</filter>
<filter id="filter4_d_36_11" x="68.8914" y="9.25641" width="162.626" height="29" filterUnits="userSpaceOnUse" color-interpolation-filters="sRGB">
<feFlood flood-opacity="0" result="BackgroundImageFix"/>
<feColorMatrix in="SourceAlpha" type="matrix" values="0 0 0 0 0 0 0 0 0 0 0 0 0 0 0 0 0 0 127 0" result="hardAlpha"/>
<feOffset dy="4"/>
<feGaussianBlur stdDeviation="5"/>
<feComposite in2="hardAlpha" operator="out"/>
<feColorMatrix type="matrix" values="0 0 0 0 1 0 0 0 0 1 0 0 0 0 1 0 0 0 1 0"/>
<feBlend mode="normal" in2="BackgroundImageFix" result="effect1_dropShadow_36_11"/>
<feBlend mode="normal" in="SourceGraphic" in2="effect1_dropShadow_36_11" result="shape"/>
</filter>
<filter id="filter5_d_36_11" x="80.4651" y="29.2686" width="75.8224" height="29.4164" filterUnits="userSpaceOnUse" color-interpolation-filters="sRGB">
<feFlood flood-opacity="0" result="BackgroundImageFix"/>
<feColorMatrix in="SourceAlpha" type="matrix" values="0 0 0 0 0 0 0 0 0 0 0 0 0 0 0 0 0 0 127 0" result="hardAlpha"/>
<feOffset dy="4"/>
<feGaussianBlur stdDeviation="5"/>
<feComposite in2="hardAlpha" operator="out"/>
<feColorMatrix type="matrix" values="0 0 0 0 1 0 0 0 0 1 0 0 0 0 1 0 0 0 1 0"/>
<feBlend mode="normal" in2="BackgroundImageFix" result="effect1_dropShadow_36_11"/>
<feBlend mode="normal" in="SourceGraphic" in2="effect1_dropShadow_36_11" result="shape"/>
</filter>
<filter id="filter6_d_36_11" x="89.9345" y="50.1145" width="66.3531" height="29.4161" filterUnits="userSpaceOnUse" color-interpolation-filters="sRGB">
<feFlood flood-opacity="0" result="BackgroundImageFix"/>
<feColorMatrix in="SourceAlpha" type="matrix" values="0 0 0 0 0 0 0 0 0 0 0 0 0 0 0 0 0 0 127 0" result="hardAlpha"/>
<feOffset dy="4"/>
<feGaussianBlur stdDeviation="5"/>
<feComposite in2="hardAlpha" operator="out"/>
<feColorMatrix type="matrix" values="0 0 0 0 1 0 0 0 0 1 0 0 0 0 1 0 0 0 1 0"/>
<feBlend mode="normal" in2="BackgroundImageFix" result="effect1_dropShadow_36_11"/>
<feBlend mode="normal" in="SourceGraphic" in2="effect1_dropShadow_36_11" result="shape"/>
</filter>
<filter id="filter7_d_36_11" x="150.433" y="28.8538" width="60.5702" height="29.8291" filterUnits="userSpaceOnUse" color-interpolation-filters="sRGB">
<feFlood flood-opacity="0" result="BackgroundImageFix"/>
<feColorMatrix in="SourceAlpha" type="matrix" values="0 0 0 0 0 0 0 0 0 0 0 0 0 0 0 0 0 0 127 0" result="hardAlpha"/>
<feOffset dy="4"/>
<feGaussianBlur stdDeviation="5"/>
<feComposite in2="hardAlpha" operator="out"/>
<feColorMatrix type="matrix" values="0 0 0 0 1 0 0 0 0 1 0 0 0 0 1 0 0 0 1 0"/>
<feBlend mode="normal" in2="BackgroundImageFix" result="effect1_dropShadow_36_11"/>
<feBlend mode="normal" in="SourceGraphic" in2="effect1_dropShadow_36_11" result="shape"/>
</filter>
<filter id="filter8_d_36_11" x="150.435" y="50.5309" width="63.7218" height="29" filterUnits="userSpaceOnUse" color-interpolation-filters="sRGB">
<feFlood flood-opacity="0" result="BackgroundImageFix"/>
<feColorMatrix in="SourceAlpha" type="matrix" values="0 0 0 0 0 0 0 0 0 0 0 0 0 0 0 0 0 0 127 0" result="hardAlpha"/>
<feOffset dy="4"/>
<feGaussianBlur stdDeviation="5"/>
<feComposite in2="hardAlpha" operator="out"/>
<feColorMatrix type="matrix" values="0 0 0 0 1 0 0 0 0 1 0 0 0 0 1 0 0 0 1 0"/>
<feBlend mode="normal" in2="BackgroundImageFix" result="effect1_dropShadow_36_11"/>
<feBlend mode="normal" in="SourceGraphic" in2="effect1_dropShadow_36_11" result="shape"/>
</filter>
<filter id="filter9_d_36_11" x="218.56" y="24.0215" width="89.4803" height="77.1772" filterUnits="userSpaceOnUse" color-interpolation-filters="sRGB">
<feFlood flood-opacity="0" result="BackgroundImageFix"/>
<feColorMatrix in="SourceAlpha" type="matrix" values="0 0 0 0 0 0 0 0 0 0 0 0 0 0 0 0 0 0 127 0" result="hardAlpha"/>
<feOffset dy="4"/>
<feGaussianBlur stdDeviation="2"/>
<feComposite in2="hardAlpha" operator="out"/>
<feColorMatrix type="matrix" values="0 0 0 0 0 0 0 0 0 0 0 0 0 0 0 0 0 0 0.25 0"/>
<feBlend mode="normal" in2="BackgroundImageFix" result="effect1_dropShadow_36_11"/>
<feBlend mode="normal" in="SourceGraphic" in2="effect1_dropShadow_36_11" result="shape"/>
</filter>
<filter id="filter10_d_36_11" x="78.674" y="114.074" width="86.0186" height="45.4276" filterUnits="userSpaceOnUse" color-interpolation-filters="sRGB">
<feFlood flood-opacity="0" result="BackgroundImageFix"/>
<feColorMatrix in="SourceAlpha" type="matrix" values="0 0 0 0 0 0 0 0 0 0 0 0 0 0 0 0 0 0 127 0" result="hardAlpha"/>
<feOffset dy="4"/>
<feGaussianBlur stdDeviation="5"/>
<feComposite in2="hardAlpha" operator="out"/>
<feColorMatrix type="matrix" values="0 0 0 0 1 0 0 0 0 1 0 0 0 0 1 0 0 0 1 0"/>
<feBlend mode="normal" in2="BackgroundImageFix" result="effect1_dropShadow_36_11"/>
<feBlend mode="normal" in="SourceGraphic" in2="effect1_dropShadow_36_11" result="shape"/>
</filter>
<filter id="filter11_d_36_11" x="149.803" y="114.343" width="80.75" height="39.924" filterUnits="userSpaceOnUse" color-interpolation-filters="sRGB">
<feFlood flood-opacity="0" result="BackgroundImageFix"/>
<feColorMatrix in="SourceAlpha" type="matrix" values="0 0 0 0 0 0 0 0 0 0 0 0 0 0 0 0 0 0 127 0" result="hardAlpha"/>
<feOffset dy="4"/>
<feGaussianBlur stdDeviation="5"/>
<feComposite in2="hardAlpha" operator="out"/>
<feColorMatrix type="matrix" values="0 0 0 0 1 0 0 0 0 1 0 0 0 0 1 0 0 0 1 0"/>
<feBlend mode="normal" in2="BackgroundImageFix" result="effect1_dropShadow_36_11"/>
<feBlend mode="normal" in="SourceGraphic" in2="effect1_dropShadow_36_11" result="shape"/>
</filter>
<filter id="filter12_d_36_11" x="235.304" y="52.5812" width="34.979" height="36.7098" filterUnits="userSpaceOnUse" color-interpolation-filters="sRGB">
<feFlood flood-opacity="0" result="BackgroundImageFix"/>
<feColorMatrix in="SourceAlpha" type="matrix" values="0 0 0 0 0 0 0 0 0 0 0 0 0 0 0 0 0 0 127 0" result="hardAlpha"/>
<feOffset dy="4"/>
<feGaussianBlur stdDeviation="2"/>
<feComposite in2="hardAlpha" operator="out"/>
<feColorMatrix type="matrix" values="0 0 0 0 1 0 0 0 0 1 0 0 0 0 1 0 0 0 1 0"/>
<feBlend mode="normal" in2="BackgroundImageFix" result="effect1_dropShadow_36_11"/>
<feBlend mode="normal" in="SourceGraphic" in2="effect1_dropShadow_36_11" result="shape"/>
</filter>
<filter id="filter13_d_36_11" x="254.523" y="42.326" width="35.9273" height="37.6169" filterUnits="userSpaceOnUse" color-interpolation-filters="sRGB">
<feFlood flood-opacity="0" result="BackgroundImageFix"/>
<feColorMatrix in="SourceAlpha" type="matrix" values="0 0 0 0 0 0 0 0 0 0 0 0 0 0 0 0 0 0 127 0" result="hardAlpha"/>
<feOffset dy="4"/>
<feGaussianBlur stdDeviation="2"/>
<feComposite in2="hardAlpha" operator="out"/>
<feColorMatrix type="matrix" values="0 0 0 0 1 0 0 0 0 1 0 0 0 0 1 0 0 0 1 0"/>
<feBlend mode="normal" in2="BackgroundImageFix" result="effect1_dropShadow_36_11"/>
<feBlend mode="normal" in="SourceGraphic" in2="effect1_dropShadow_36_11" result="shape"/>
</filter>
<filter id="filter14_d_36_11" x="245.469" y="47.5115" width="34.8622" height="37.5585" filterUnits="userSpaceOnUse" color-interpolation-filters="sRGB">
<feFlood flood-opacity="0" result="BackgroundImageFix"/>
<feColorMatrix in="SourceAlpha" type="matrix" values="0 0 0 0 0 0 0 0 0 0 0 0 0 0 0 0 0 0 127 0" result="hardAlpha"/>
<feOffset dy="4"/>
<feGaussianBlur stdDeviation="2"/>
<feComposite in2="hardAlpha" operator="out"/>
<feColorMatrix type="matrix" values="0 0 0 0 1 0 0 0 0 1 0 0 0 0 1 0 0 0 1 0"/>
<feBlend mode="normal" in2="BackgroundImageFix" result="effect1_dropShadow_36_11"/>
<feBlend mode="normal" in="SourceGraphic" in2="effect1_dropShadow_36_11" result="shape"/>
</filter>
<filter id="filter15_d_36_11" x="139.152" y="31.6838" width="26.7132" height="25.2891" filterUnits="userSpaceOnUse" color-interpolation-filters="sRGB">
<feFlood flood-opacity="0" result="BackgroundImageFix"/>
<feColorMatrix in="SourceAlpha" type="matrix" values="0 0 0 0 0 0 0 0 0 0 0 0 0 0 0 0 0 0 127 0" result="hardAlpha"/>
<feOffset dy="4"/>
<feGaussianBlur stdDeviation="5"/>
<feComposite in2="hardAlpha" operator="out"/>
<feColorMatrix type="matrix" values="0 0 0 0 1 0 0 0 0 1 0 0 0 0 1 0 0 0 1 0"/>
<feBlend mode="normal" in2="BackgroundImageFix" result="effect1_dropShadow_36_11"/>
<feBlend mode="normal" in="SourceGraphic" in2="effect1_dropShadow_36_11" result="shape"/>
</filter>
<filter id="filter16_d_36_11" x="139.152" y="52.5295" width="26.7132" height="25.2891" filterUnits="userSpaceOnUse" color-interpolation-filters="sRGB">
<feFlood flood-opacity="0" result="BackgroundImageFix"/>
<feColorMatrix in="SourceAlpha" type="matrix" values="0 0 0 0 0 0 0 0 0 0 0 0 0 0 0 0 0 0 127 0" result="hardAlpha"/>
<feOffset dy="4"/>
<feGaussianBlur stdDeviation="5"/>
<feComposite in2="hardAlpha" operator="out"/>
<feColorMatrix type="matrix" values="0 0 0 0 1 0 0 0 0 1 0 0 0 0 1 0 0 0 1 0"/>
<feBlend mode="normal" in2="BackgroundImageFix" result="effect1_dropShadow_36_11"/>
<feBlend mode="normal" in="SourceGraphic" in2="effect1_dropShadow_36_11" result="shape"/>
</filter>
<filter id="filter17_d_36_11" x="106.009" y="76.2937" width="51.5653" height="47.5164" filterUnits="userSpaceOnUse" color-interpolation-filters="sRGB">
<feFlood flood-opacity="0" result="BackgroundImageFix"/>
<feColorMatrix in="SourceAlpha" type="matrix" values="0 0 0 0 0 0 0 0 0 0 0 0 0 0 0 0 0 0 127 0" result="hardAlpha"/>
<feOffset dy="4"/>
<feGaussianBlur stdDeviation="5"/>
<feComposite in2="hardAlpha" operator="out"/>
<feColorMatrix type="matrix" values="0 0 0 0 1 0 0 0 0 1 0 0 0 0 1 0 0 0 1 0"/>
<feBlend mode="normal" in2="BackgroundImageFix" result="effect1_dropShadow_36_11"/>
<feBlend mode="normal" in="SourceGraphic" in2="effect1_dropShadow_36_11" result="shape"/>
</filter>
<filter id="filter18_d_36_11" x="155.461" y="76.2937" width="51.5653" height="47.5164" filterUnits="userSpaceOnUse" color-interpolation-filters="sRGB">
<feFlood flood-opacity="0" result="BackgroundImageFix"/>
<feColorMatrix in="SourceAlpha" type="matrix" values="0 0 0 0 0 0 0 0 0 0 0 0 0 0 0 0 0 0 127 0" result="hardAlpha"/>
<feOffset dy="4"/>
<feGaussianBlur stdDeviation="5"/>
<feComposite in2="hardAlpha" operator="out"/>
<feColorMatrix type="matrix" values="0 0 0 0 1 0 0 0 0 1 0 0 0 0 1 0 0 0 1 0"/>
<feBlend mode="normal" in2="BackgroundImageFix" result="effect1_dropShadow_36_11"/>
<feBlend mode="normal" in="SourceGraphic" in2="effect1_dropShadow_36_11" result="shape"/>
</filter>
<filter id="filter19_d_36_11" x="0.498459" y="0.0858154" width="68.9857" height="29.8309" filterUnits="userSpaceOnUse" color-interpolation-filters="sRGB">
<feFlood flood-opacity="0" result="BackgroundImageFix"/>
<feColorMatrix in="SourceAlpha" type="matrix" values="0 0 0 0 0 0 0 0 0 0 0 0 0 0 0 0 0 0 127 0" result="hardAlpha"/>
<feOffset dy="4"/>
<feGaussianBlur stdDeviation="5"/>
<feComposite in2="hardAlpha" operator="out"/>
<feColorMatrix type="matrix" values="0 0 0 0 1 0 0 0 0 1 0 0 0 0 1 0 0 0 1 0"/>
<feBlend mode="normal" in2="BackgroundImageFix" result="effect1_dropShadow_36_11"/>
<feBlend mode="normal" in="SourceGraphic" in2="effect1_dropShadow_36_11" result="shape"/>
</filter>
</defs>
</svg>
