<svg width="295" height="175" viewBox="0 0 295 175" fill="none" xmlns="http://www.w3.org/2000/svg">
<g filter="url(#filter0_d_33_9)">
<line x1="198.493" y1="89.1563" x2="204.156" y2="82.5075" stroke="#333333" stroke-width="9" stroke-linecap="round"/>
</g>
<g filter="url(#filter1_d_33_9)">
<path d="M248.501 111.265C244.782 113.608 239.647 112.643 237.031 109.111L201.322 60.883C199.939 59.0157 199.485 56.7007 200.078 54.5453L206.764 30.2342C207.766 26.5926 211.487 24.2484 215.529 24.713L242.512 27.8142C244.904 28.0891 247.077 29.322 248.46 31.1892L284.169 79.4169C286.784 82.9494 285.89 87.7123 282.171 90.055L248.501 111.265Z" fill="#F5F5F5"/>
<path d="M228.724 48.3391C228.986 46.9836 228.1 45.672 226.745 45.4097C225.389 45.1474 224.078 46.0336 223.815 47.3892L223.81 47.4164C223.548 48.772 224.434 50.0835 225.789 50.3459C227.145 50.6082 228.457 49.7219 228.719 48.3663L228.724 48.3391ZM239.04 107.623L203.331 59.3953C202.385 58.117 202.108 56.5899 202.488 55.2082L209.175 30.8972C209.813 28.5763 212.285 26.8566 215.243 27.1966L242.227 30.2978C243.96 30.497 245.496 31.3885 246.45 32.6769L282.16 80.9046C283.909 83.268 283.326 86.3724 280.838 87.9398L247.169 109.15C244.556 110.795 240.878 110.104 239.04 107.623Z" stroke="white" stroke-width="5" stroke-linecap="round" stroke-linejoin="round"/>
</g>
<g filter="url(#filter2_d_33_9)">
<path d="M13 10L51 9" stroke="#333333" stroke-width="9" stroke-linecap="round"/>
</g>
<g filter="url(#filter3_d_33_9)">
<path d="M51.5 9.5L89.5 89.5" stroke="#333333" stroke-width="9" stroke-linecap="round"/>
</g>
<g filter="url(#filter4_d_33_9)">
<path d="M89.5 89.5H196.5" stroke="#333333" stroke-width="9" stroke-linecap="round"/>
</g>
<g filter="url(#filter5_d_33_9)">
<path d="M79 23L197 23" stroke="#333333" stroke-width="9" stroke-linecap="round"/>
</g>
<g filter="url(#filter6_d_33_9)">
<path d="M89 44L133.5 44.5" stroke="#333333" stroke-width="9" stroke-linecap="round"/>
</g>
<g filter="url(#filter7_d_33_9)">
<path d="M98 69L133.5 69.5" stroke="#333333" stroke-width="9" stroke-linecap="round"/>
</g>
<g filter="url(#filter8_d_33_9)">
<path d="M155.5 43.5L185.5 44.5" stroke="#333333" stroke-width="9" stroke-linecap="round"/>
</g>
<g filter="url(#filter9_d_33_9)">
<path d="M155.5 69.5L188.5 69.5" stroke="#333333" stroke-width="9" stroke-linecap="round"/>
</g>
<g filter="url(#filter10_d_33_9)">
<path d="M247.142 104.48C243.981 106.468 239.685 105.597 237.547 102.535L208.358 60.7315C207.228 59.1131 206.884 57.1163 207.417 55.2652L213.433 34.3864C214.334 31.2589 217.497 29.2698 220.884 29.7015L243.49 32.5834C245.494 32.839 247.298 33.9175 248.428 35.536L277.617 77.3393C279.755 80.4012 278.925 84.4949 275.764 86.4828L247.142 104.48Z" fill="#34D399"/>
<path d="M229.521 49.7185L229.516 49.7419M213.433 34.3864L207.417 55.2652C206.884 57.1163 207.228 59.1131 208.358 60.7315L237.547 102.535C239.685 105.597 243.981 106.468 247.142 104.48L275.764 86.4828C278.925 84.4949 279.755 80.4012 277.617 77.3393L248.428 35.536C247.298 33.9175 245.494 32.839 243.49 32.5834L220.884 29.7015C217.497 29.2698 214.334 31.2589 213.433 34.3864Z" stroke="#333333" stroke-width="6" stroke-linecap="round" stroke-linejoin="round"/>
</g>
<path d="M200.58 23.2241C229.701 15.5231 231.701 37.0232 229.701 48.5233" stroke="white" stroke-width="10" stroke-linecap="round" stroke-linejoin="round"/>
<path d="M200.58 23.2241C229.701 15.5231 231.701 37.0232 229.701 48.5233" stroke="#333333" stroke-width="5" stroke-linecap="round" stroke-linejoin="round"/>
<g filter="url(#filter11_d_33_9)">
<path d="M94.359 145.011C94.2823 144.238 93.9531 143.637 93.3714 143.208C92.7898 142.78 92.0004 142.566 91.0032 142.566C90.3256 142.566 89.7536 142.662 89.2869 142.854C88.8203 143.039 88.4624 143.298 88.2131 143.63C87.9702 143.963 87.8487 144.34 87.8487 144.762C87.8359 145.113 87.9094 145.42 88.0692 145.682C88.2354 145.944 88.4624 146.171 88.75 146.363C89.0376 146.548 89.37 146.711 89.7472 146.852C90.1243 146.986 90.527 147.101 90.9553 147.197L92.7195 147.619C93.576 147.811 94.3622 148.066 95.0781 148.386C95.794 148.706 96.4141 149.099 96.9382 149.565C97.4624 150.032 97.8683 150.582 98.1559 151.214C98.4499 151.847 98.6001 152.573 98.6065 153.391C98.6001 154.593 98.2933 155.635 97.6861 156.517C97.0852 157.392 96.2159 158.073 95.0781 158.559C93.9467 159.038 92.582 159.278 90.984 159.278C89.3988 159.278 88.0181 159.035 86.842 158.549C85.6722 158.064 84.7582 157.344 84.0998 156.392C83.4478 155.433 83.1058 154.248 83.0739 152.835H87.0913C87.136 153.493 87.3246 154.043 87.657 154.484C87.9957 154.919 88.4464 155.248 89.0089 155.472C89.5778 155.689 90.2202 155.798 90.9361 155.798C91.6392 155.798 92.2496 155.695 92.7674 155.491C93.2915 155.286 93.6974 155.002 93.9851 154.637C94.2727 154.273 94.4165 153.854 94.4165 153.381C94.4165 152.94 94.2855 152.57 94.0234 152.269C93.7678 151.969 93.3906 151.713 92.892 151.502C92.3999 151.291 91.7958 151.099 91.0799 150.927L88.9418 150.39C87.2862 149.987 85.979 149.358 85.0202 148.501C84.0614 147.645 83.5852 146.491 83.5916 145.04C83.5852 143.851 83.9016 142.812 84.5408 141.924C85.1864 141.035 86.0717 140.342 87.1967 139.843C88.3217 139.344 89.6001 139.095 91.032 139.095C92.4893 139.095 93.7614 139.344 94.848 139.843C95.9411 140.342 96.7912 141.035 97.3984 141.924C98.0057 142.812 98.3189 143.841 98.3381 145.011H94.359ZM105.407 150.486V159H101.322V139.364H105.292V146.871H105.464C105.797 146.002 106.334 145.321 107.075 144.829C107.817 144.33 108.747 144.081 109.865 144.081C110.888 144.081 111.78 144.305 112.54 144.752C113.307 145.193 113.902 145.829 114.324 146.66C114.752 147.485 114.963 148.472 114.957 149.623V159H110.872V150.352C110.878 149.444 110.648 148.738 110.182 148.233C109.722 147.728 109.076 147.475 108.245 147.475C107.689 147.475 107.197 147.593 106.768 147.83C106.347 148.066 106.014 148.412 105.771 148.865C105.535 149.313 105.413 149.853 105.407 150.486ZM124.825 159.288C123.336 159.288 122.048 158.971 120.961 158.338C119.881 157.699 119.047 156.811 118.459 155.673C117.871 154.529 117.577 153.202 117.577 151.694C117.577 150.173 117.871 148.843 118.459 147.705C119.047 146.561 119.881 145.673 120.961 145.04C122.048 144.401 123.336 144.081 124.825 144.081C126.314 144.081 127.599 144.401 128.68 145.04C129.766 145.673 130.604 146.561 131.192 147.705C131.78 148.843 132.074 150.173 132.074 151.694C132.074 153.202 131.78 154.529 131.192 155.673C130.604 156.811 129.766 157.699 128.68 158.338C127.599 158.971 126.314 159.288 124.825 159.288ZM124.844 156.124C125.522 156.124 126.088 155.932 126.541 155.548C126.995 155.158 127.337 154.628 127.567 153.957C127.804 153.286 127.922 152.522 127.922 151.665C127.922 150.809 127.804 150.045 127.567 149.374C127.337 148.702 126.995 148.172 126.541 147.782C126.088 147.392 125.522 147.197 124.844 147.197C124.16 147.197 123.585 147.392 123.118 147.782C122.658 148.172 122.31 148.702 122.073 149.374C121.843 150.045 121.728 150.809 121.728 151.665C121.728 152.522 121.843 153.286 122.073 153.957C122.31 154.628 122.658 155.158 123.118 155.548C123.585 155.932 124.16 156.124 124.844 156.124ZM134.73 164.523V144.273H138.757V146.746H138.939C139.118 146.35 139.377 145.947 139.715 145.538C140.061 145.123 140.508 144.778 141.058 144.503C141.614 144.222 142.304 144.081 143.129 144.081C144.203 144.081 145.193 144.362 146.101 144.925C147.009 145.481 147.734 146.321 148.278 147.446C148.821 148.565 149.093 149.968 149.093 151.656C149.093 153.298 148.827 154.685 148.297 155.817C147.773 156.942 147.057 157.795 146.149 158.377C145.248 158.952 144.238 159.24 143.119 159.24C142.327 159.24 141.652 159.109 141.096 158.847C140.546 158.585 140.096 158.255 139.744 157.859C139.393 157.456 139.124 157.05 138.939 156.641H138.814V164.523H134.73ZM138.728 151.636C138.728 152.512 138.849 153.276 139.092 153.928C139.335 154.58 139.687 155.088 140.147 155.452C140.607 155.81 141.166 155.989 141.825 155.989C142.49 155.989 143.052 155.807 143.512 155.443C143.972 155.072 144.321 154.561 144.557 153.909C144.8 153.25 144.922 152.493 144.922 151.636C144.922 150.786 144.803 150.038 144.567 149.393C144.33 148.747 143.982 148.242 143.522 147.878C143.062 147.513 142.496 147.331 141.825 147.331C141.16 147.331 140.597 147.507 140.137 147.859C139.683 148.21 139.335 148.709 139.092 149.354C138.849 150 138.728 150.761 138.728 151.636Z" fill="#333333"/>
</g>
<g filter="url(#filter12_d_33_9)">
<path d="M150.707 159V139.364H163.938V142.787H154.858V147.466H163.257V150.888H154.858V155.577H163.977V159H150.707ZM171.362 159.278C170.422 159.278 169.585 159.115 168.85 158.789C168.115 158.457 167.533 157.968 167.105 157.322C166.683 156.67 166.472 155.858 166.472 154.887C166.472 154.069 166.622 153.381 166.922 152.825C167.223 152.269 167.632 151.822 168.15 151.483C168.668 151.144 169.256 150.888 169.914 150.716C170.579 150.543 171.275 150.422 172.004 150.352C172.861 150.262 173.551 150.179 174.075 150.102C174.599 150.019 174.98 149.898 175.216 149.738C175.453 149.578 175.571 149.342 175.571 149.028V148.971C175.571 148.364 175.379 147.894 174.996 147.561C174.619 147.229 174.082 147.063 173.385 147.063C172.65 147.063 172.065 147.226 171.63 147.552C171.196 147.871 170.908 148.274 170.767 148.76L166.99 148.453C167.181 147.558 167.559 146.785 168.121 146.133C168.684 145.474 169.409 144.969 170.297 144.618C171.192 144.26 172.228 144.081 173.404 144.081C174.222 144.081 175.005 144.177 175.753 144.369C176.507 144.56 177.175 144.858 177.757 145.26C178.345 145.663 178.809 146.181 179.147 146.814C179.486 147.44 179.655 148.191 179.655 149.067V159H175.782V156.958H175.667C175.43 157.418 175.114 157.824 174.718 158.175C174.321 158.521 173.845 158.792 173.289 158.99C172.733 159.182 172.09 159.278 171.362 159.278ZM172.532 156.459C173.132 156.459 173.663 156.341 174.123 156.104C174.583 155.862 174.945 155.536 175.207 155.126C175.469 154.717 175.6 154.254 175.6 153.736V152.173C175.472 152.256 175.296 152.333 175.072 152.403C174.855 152.467 174.609 152.528 174.334 152.586C174.059 152.637 173.784 152.685 173.509 152.729C173.235 152.768 172.985 152.803 172.762 152.835C172.282 152.905 171.864 153.017 171.506 153.17C171.148 153.324 170.87 153.532 170.671 153.794C170.473 154.049 170.374 154.369 170.374 154.752C170.374 155.309 170.576 155.734 170.978 156.028C171.387 156.315 171.905 156.459 172.532 156.459ZM195.078 148.472L191.339 148.702C191.275 148.383 191.137 148.095 190.926 147.839C190.715 147.577 190.437 147.37 190.092 147.216C189.753 147.056 189.347 146.977 188.874 146.977C188.242 146.977 187.708 147.111 187.273 147.379C186.839 147.641 186.621 147.993 186.621 148.434C186.621 148.786 186.762 149.083 187.043 149.326C187.324 149.569 187.807 149.763 188.491 149.911L191.156 150.447C192.588 150.741 193.656 151.214 194.359 151.866C195.062 152.518 195.413 153.375 195.413 154.436C195.413 155.401 195.129 156.248 194.56 156.977C193.998 157.706 193.224 158.275 192.24 158.684C191.262 159.086 190.134 159.288 188.855 159.288C186.906 159.288 185.352 158.882 184.195 158.07C183.045 157.252 182.37 156.14 182.172 154.733L186.19 154.522C186.311 155.117 186.605 155.571 187.072 155.884C187.538 156.191 188.136 156.344 188.865 156.344C189.581 156.344 190.156 156.207 190.591 155.932C191.032 155.651 191.255 155.289 191.262 154.848C191.255 154.478 191.099 154.174 190.792 153.938C190.485 153.695 190.012 153.509 189.373 153.381L186.823 152.873C185.384 152.586 184.314 152.087 183.611 151.377C182.914 150.668 182.565 149.763 182.565 148.664C182.565 147.718 182.821 146.903 183.332 146.219C183.85 145.535 184.576 145.008 185.509 144.637C186.449 144.266 187.548 144.081 188.807 144.081C190.667 144.081 192.131 144.474 193.199 145.26C194.272 146.047 194.899 147.117 195.078 148.472ZM204.697 159.288C203.182 159.288 201.878 158.981 200.785 158.367C199.699 157.747 198.861 156.871 198.273 155.74C197.685 154.602 197.391 153.257 197.391 151.703C197.391 150.189 197.685 148.859 198.273 147.715C198.861 146.571 199.689 145.679 200.756 145.04C201.83 144.401 203.089 144.081 204.534 144.081C205.506 144.081 206.41 144.238 207.248 144.551C208.091 144.858 208.826 145.321 209.453 145.941C210.086 146.561 210.578 147.341 210.929 148.281C211.281 149.214 211.457 150.307 211.457 151.56V152.681H199.021V150.15H207.612C207.612 149.562 207.484 149.041 207.228 148.587C206.973 148.134 206.618 147.779 206.164 147.523C205.717 147.261 205.196 147.13 204.601 147.13C203.981 147.13 203.431 147.274 202.952 147.561C202.479 147.843 202.108 148.223 201.84 148.702C201.571 149.175 201.434 149.703 201.428 150.284V152.691C201.428 153.42 201.562 154.049 201.83 154.58C202.105 155.11 202.492 155.52 202.99 155.807C203.489 156.095 204.08 156.239 204.764 156.239C205.218 156.239 205.634 156.175 206.011 156.047C206.388 155.919 206.711 155.727 206.979 155.472C207.248 155.216 207.452 154.903 207.593 154.532L211.37 154.781C211.179 155.689 210.786 156.482 210.191 157.159C209.603 157.83 208.842 158.354 207.909 158.732C206.982 159.102 205.912 159.288 204.697 159.288Z" fill="#34D399"/>
</g>
<g filter="url(#filter13_d_33_9)">
<path d="M223.307 63.5817L242.697 91.5821" stroke="white" stroke-width="6" stroke-linecap="round"/>
</g>
<g filter="url(#filter14_d_33_9)">
<path d="M241.574 51.2809L261.863 80.3731" stroke="white" stroke-width="6" stroke-linecap="round"/>
</g>
<g filter="url(#filter15_d_33_9)">
<path d="M232.961 57.5129L252.254 86.5087" stroke="white" stroke-width="6" stroke-linecap="round"/>
</g>
<g filter="url(#filter16_d_33_9)">
<rect x="143.253" y="41.5" width="5" height="4" transform="rotate(43.4942 143.253 41.5)" fill="#333333"/>
</g>
<g filter="url(#filter17_d_33_9)">
<rect x="143.253" y="66.5" width="5" height="4" transform="rotate(43.4942 143.253 66.5)" fill="#333333"/>
</g>
<g filter="url(#filter18_d_33_9)">
<ellipse cx="124" cy="111.5" rx="15" ry="16.5" fill="white"/>
<path d="M135.5 111.5C135.5 119.001 130.045 124.5 124 124.5C117.955 124.5 112.5 119.001 112.5 111.5C112.5 103.999 117.955 98.5 124 98.5C130.045 98.5 135.5 103.999 135.5 111.5Z" stroke="#333333" stroke-width="7"/>
</g>
<g filter="url(#filter19_d_33_9)">
<ellipse cx="171" cy="111.5" rx="15" ry="16.5" fill="white"/>
<path d="M182.5 111.5C182.5 119.001 177.045 124.5 171 124.5C164.955 124.5 159.5 119.001 159.5 111.5C159.5 103.999 164.955 98.5 171 98.5C177.045 98.5 182.5 103.999 182.5 111.5Z" stroke="#333333" stroke-width="7"/>
</g>
<defs>
<filter id="filter0_d_33_9" x="185.992" y="74.0074" width="30.664" height="31.649" filterUnits="userSpaceOnUse" color-interpolation-filters="sRGB">
<feFlood flood-opacity="0" result="BackgroundImageFix"/>
<feColorMatrix in="SourceAlpha" type="matrix" values="0 0 0 0 0 0 0 0 0 0 0 0 0 0 0 0 0 0 127 0" result="hardAlpha"/>
<feOffset dy="4"/>
<feGaussianBlur stdDeviation="4"/>
<feComposite in2="hardAlpha" operator="out"/>
<feColorMatrix type="matrix" values="0 0 0 0 0 0 0 0 0 0 0 0 0 0 0 0 0 0 0.5 0"/>
<feBlend mode="normal" in2="BackgroundImageFix" result="effect1_dropShadow_33_9"/>
<feBlend mode="normal" in="SourceGraphic" in2="effect1_dropShadow_33_9" result="shape"/>
</filter>
<filter id="filter1_d_33_9" x="194.823" y="23.6545" width="95.8448" height="97.89" filterUnits="userSpaceOnUse" color-interpolation-filters="sRGB">
<feFlood flood-opacity="0" result="BackgroundImageFix"/>
<feColorMatrix in="SourceAlpha" type="matrix" values="0 0 0 0 0 0 0 0 0 0 0 0 0 0 0 0 0 0 127 0" result="hardAlpha"/>
<feOffset dy="4"/>
<feGaussianBlur stdDeviation="2.5"/>
<feComposite in2="hardAlpha" operator="out"/>
<feColorMatrix type="matrix" values="0 0 0 0 0 0 0 0 0 0 0 0 0 0 0 0 0 0 0.7 0"/>
<feBlend mode="normal" in2="BackgroundImageFix" result="effect1_dropShadow_33_9"/>
<feBlend mode="normal" in="SourceGraphic" in2="effect1_dropShadow_33_9" result="shape"/>
</filter>
<filter id="filter2_d_33_9" x="0.499969" y="0.499939" width="63.0001" height="26.0001" filterUnits="userSpaceOnUse" color-interpolation-filters="sRGB">
<feFlood flood-opacity="0" result="BackgroundImageFix"/>
<feColorMatrix in="SourceAlpha" type="matrix" values="0 0 0 0 0 0 0 0 0 0 0 0 0 0 0 0 0 0 127 0" result="hardAlpha"/>
<feOffset dy="4"/>
<feGaussianBlur stdDeviation="4"/>
<feComposite in2="hardAlpha" operator="out"/>
<feColorMatrix type="matrix" values="0 0 0 0 0 0 0 0 0 0 0 0 0 0 0 0 0 0 0.5 0"/>
<feBlend mode="normal" in2="BackgroundImageFix" result="effect1_dropShadow_33_9"/>
<feBlend mode="normal" in="SourceGraphic" in2="effect1_dropShadow_33_9" result="shape"/>
</filter>
<filter id="filter3_d_33_9" x="38.999" y="0.998962" width="63.0021" height="105.002" filterUnits="userSpaceOnUse" color-interpolation-filters="sRGB">
<feFlood flood-opacity="0" result="BackgroundImageFix"/>
<feColorMatrix in="SourceAlpha" type="matrix" values="0 0 0 0 0 0 0 0 0 0 0 0 0 0 0 0 0 0 127 0" result="hardAlpha"/>
<feOffset dy="4"/>
<feGaussianBlur stdDeviation="4"/>
<feComposite in2="hardAlpha" operator="out"/>
<feColorMatrix type="matrix" values="0 0 0 0 0 0 0 0 0 0 0 0 0 0 0 0 0 0 0.5 0"/>
<feBlend mode="normal" in2="BackgroundImageFix" result="effect1_dropShadow_33_9"/>
<feBlend mode="normal" in="SourceGraphic" in2="effect1_dropShadow_33_9" result="shape"/>
</filter>
<filter id="filter4_d_33_9" x="77" y="81" width="132" height="25" filterUnits="userSpaceOnUse" color-interpolation-filters="sRGB">
<feFlood flood-opacity="0" result="BackgroundImageFix"/>
<feColorMatrix in="SourceAlpha" type="matrix" values="0 0 0 0 0 0 0 0 0 0 0 0 0 0 0 0 0 0 127 0" result="hardAlpha"/>
<feOffset dy="4"/>
<feGaussianBlur stdDeviation="4"/>
<feComposite in2="hardAlpha" operator="out"/>
<feColorMatrix type="matrix" values="0 0 0 0 0 0 0 0 0 0 0 0 0 0 0 0 0 0 0.5 0"/>
<feBlend mode="normal" in2="BackgroundImageFix" result="effect1_dropShadow_33_9"/>
<feBlend mode="normal" in="SourceGraphic" in2="effect1_dropShadow_33_9" result="shape"/>
</filter>
<filter id="filter5_d_33_9" x="70.5" y="18.5" width="135" height="17" filterUnits="userSpaceOnUse" color-interpolation-filters="sRGB">
<feFlood flood-opacity="0" result="BackgroundImageFix"/>
<feColorMatrix in="SourceAlpha" type="matrix" values="0 0 0 0 0 0 0 0 0 0 0 0 0 0 0 0 0 0 127 0" result="hardAlpha"/>
<feOffset dy="4"/>
<feGaussianBlur stdDeviation="2"/>
<feComposite in2="hardAlpha" operator="out"/>
<feColorMatrix type="matrix" values="0 0 0 0 0 0 0 0 0 0 0 0 0 0 0 0 0 0 0.5 0"/>
<feBlend mode="normal" in2="BackgroundImageFix" result="effect1_dropShadow_33_9"/>
<feBlend mode="normal" in="SourceGraphic" in2="effect1_dropShadow_33_9" result="shape"/>
</filter>
<filter id="filter6_d_33_9" x="80.5" y="39.5" width="61.5" height="17.5" filterUnits="userSpaceOnUse" color-interpolation-filters="sRGB">
<feFlood flood-opacity="0" result="BackgroundImageFix"/>
<feColorMatrix in="SourceAlpha" type="matrix" values="0 0 0 0 0 0 0 0 0 0 0 0 0 0 0 0 0 0 127 0" result="hardAlpha"/>
<feOffset dy="4"/>
<feGaussianBlur stdDeviation="2"/>
<feComposite in2="hardAlpha" operator="out"/>
<feColorMatrix type="matrix" values="0 0 0 0 0 0 0 0 0 0 0 0 0 0 0 0 0 0 0.5 0"/>
<feBlend mode="normal" in2="BackgroundImageFix" result="effect1_dropShadow_33_9"/>
<feBlend mode="normal" in="SourceGraphic" in2="effect1_dropShadow_33_9" result="shape"/>
</filter>
<filter id="filter7_d_33_9" x="89.5" y="64.5" width="52.5" height="17.5" filterUnits="userSpaceOnUse" color-interpolation-filters="sRGB">
<feFlood flood-opacity="0" result="BackgroundImageFix"/>
<feColorMatrix in="SourceAlpha" type="matrix" values="0 0 0 0 0 0 0 0 0 0 0 0 0 0 0 0 0 0 127 0" result="hardAlpha"/>
<feOffset dy="4"/>
<feGaussianBlur stdDeviation="2"/>
<feComposite in2="hardAlpha" operator="out"/>
<feColorMatrix type="matrix" values="0 0 0 0 0 0 0 0 0 0 0 0 0 0 0 0 0 0 0.5 0"/>
<feBlend mode="normal" in2="BackgroundImageFix" result="effect1_dropShadow_33_9"/>
<feBlend mode="normal" in="SourceGraphic" in2="effect1_dropShadow_33_9" result="shape"/>
</filter>
<filter id="filter8_d_33_9" x="147" y="38.9999" width="47.0001" height="18.0001" filterUnits="userSpaceOnUse" color-interpolation-filters="sRGB">
<feFlood flood-opacity="0" result="BackgroundImageFix"/>
<feColorMatrix in="SourceAlpha" type="matrix" values="0 0 0 0 0 0 0 0 0 0 0 0 0 0 0 0 0 0 127 0" result="hardAlpha"/>
<feOffset dy="4"/>
<feGaussianBlur stdDeviation="2"/>
<feComposite in2="hardAlpha" operator="out"/>
<feColorMatrix type="matrix" values="0 0 0 0 0 0 0 0 0 0 0 0 0 0 0 0 0 0 0.5 0"/>
<feBlend mode="normal" in2="BackgroundImageFix" result="effect1_dropShadow_33_9"/>
<feBlend mode="normal" in="SourceGraphic" in2="effect1_dropShadow_33_9" result="shape"/>
</filter>
<filter id="filter9_d_33_9" x="147" y="65" width="50" height="17" filterUnits="userSpaceOnUse" color-interpolation-filters="sRGB">
<feFlood flood-opacity="0" result="BackgroundImageFix"/>
<feColorMatrix in="SourceAlpha" type="matrix" values="0 0 0 0 0 0 0 0 0 0 0 0 0 0 0 0 0 0 127 0" result="hardAlpha"/>
<feOffset dy="4"/>
<feGaussianBlur stdDeviation="2"/>
<feComposite in2="hardAlpha" operator="out"/>
<feColorMatrix type="matrix" values="0 0 0 0 0 0 0 0 0 0 0 0 0 0 0 0 0 0 0.5 0"/>
<feBlend mode="normal" in2="BackgroundImageFix" result="effect1_dropShadow_33_9"/>
<feBlend mode="normal" in="SourceGraphic" in2="effect1_dropShadow_33_9" result="shape"/>
</filter>
<filter id="filter10_d_33_9" x="200.171" y="26.6435" width="85.6327" height="89.9031" filterUnits="userSpaceOnUse" color-interpolation-filters="sRGB">
<feFlood flood-opacity="0" result="BackgroundImageFix"/>
<feColorMatrix in="SourceAlpha" type="matrix" values="0 0 0 0 0 0 0 0 0 0 0 0 0 0 0 0 0 0 127 0" result="hardAlpha"/>
<feOffset dy="4"/>
<feGaussianBlur stdDeviation="2"/>
<feComposite in2="hardAlpha" operator="out"/>
<feColorMatrix type="matrix" values="0 0 0 0 0 0 0 0 0 0 0 0 0 0 0 0 0 0 0.25 0"/>
<feBlend mode="normal" in2="BackgroundImageFix" result="effect1_dropShadow_33_9"/>
<feBlend mode="normal" in="SourceGraphic" in2="effect1_dropShadow_33_9" result="shape"/>
</filter>
<filter id="filter11_d_33_9" x="79.0739" y="139.095" width="74.0186" height="33.4276" filterUnits="userSpaceOnUse" color-interpolation-filters="sRGB">
<feFlood flood-opacity="0" result="BackgroundImageFix"/>
<feColorMatrix in="SourceAlpha" type="matrix" values="0 0 0 0 0 0 0 0 0 0 0 0 0 0 0 0 0 0 127 0" result="hardAlpha"/>
<feOffset dy="4"/>
<feGaussianBlur stdDeviation="2"/>
<feComposite in2="hardAlpha" operator="out"/>
<feColorMatrix type="matrix" values="0 0 0 0 0 0 0 0 0 0 0 0 0 0 0 0 0 0 0.25 0"/>
<feBlend mode="normal" in2="BackgroundImageFix" result="effect1_dropShadow_33_9"/>
<feBlend mode="normal" in="SourceGraphic" in2="effect1_dropShadow_33_9" result="shape"/>
</filter>
<filter id="filter12_d_33_9" x="146.707" y="139.364" width="68.75" height="27.924" filterUnits="userSpaceOnUse" color-interpolation-filters="sRGB">
<feFlood flood-opacity="0" result="BackgroundImageFix"/>
<feColorMatrix in="SourceAlpha" type="matrix" values="0 0 0 0 0 0 0 0 0 0 0 0 0 0 0 0 0 0 127 0" result="hardAlpha"/>
<feOffset dy="4"/>
<feGaussianBlur stdDeviation="2"/>
<feComposite in2="hardAlpha" operator="out"/>
<feColorMatrix type="matrix" values="0 0 0 0 0 0 0 0 0 0 0 0 0 0 0 0 0 0 0.25 0"/>
<feBlend mode="normal" in2="BackgroundImageFix" result="effect1_dropShadow_33_9"/>
<feBlend mode="normal" in="SourceGraphic" in2="effect1_dropShadow_33_9" result="shape"/>
</filter>
<filter id="filter13_d_33_9" x="216.306" y="60.5814" width="33.3906" height="42.001" filterUnits="userSpaceOnUse" color-interpolation-filters="sRGB">
<feFlood flood-opacity="0" result="BackgroundImageFix"/>
<feColorMatrix in="SourceAlpha" type="matrix" values="0 0 0 0 0 0 0 0 0 0 0 0 0 0 0 0 0 0 127 0" result="hardAlpha"/>
<feOffset dy="4"/>
<feGaussianBlur stdDeviation="2"/>
<feComposite in2="hardAlpha" operator="out"/>
<feColorMatrix type="matrix" values="0 0 0 0 1 0 0 0 0 1 0 0 0 0 1 0 0 0 1 0"/>
<feBlend mode="normal" in2="BackgroundImageFix" result="effect1_dropShadow_33_9"/>
<feBlend mode="normal" in="SourceGraphic" in2="effect1_dropShadow_33_9" result="shape"/>
</filter>
<filter id="filter14_d_33_9" x="234.573" y="48.2806" width="34.2895" height="43.0927" filterUnits="userSpaceOnUse" color-interpolation-filters="sRGB">
<feFlood flood-opacity="0" result="BackgroundImageFix"/>
<feColorMatrix in="SourceAlpha" type="matrix" values="0 0 0 0 0 0 0 0 0 0 0 0 0 0 0 0 0 0 127 0" result="hardAlpha"/>
<feOffset dy="4"/>
<feGaussianBlur stdDeviation="2"/>
<feComposite in2="hardAlpha" operator="out"/>
<feColorMatrix type="matrix" values="0 0 0 0 1 0 0 0 0 1 0 0 0 0 1 0 0 0 1 0"/>
<feBlend mode="normal" in2="BackgroundImageFix" result="effect1_dropShadow_33_9"/>
<feBlend mode="normal" in="SourceGraphic" in2="effect1_dropShadow_33_9" result="shape"/>
</filter>
<filter id="filter15_d_33_9" x="225.96" y="54.5126" width="33.2943" height="42.9964" filterUnits="userSpaceOnUse" color-interpolation-filters="sRGB">
<feFlood flood-opacity="0" result="BackgroundImageFix"/>
<feColorMatrix in="SourceAlpha" type="matrix" values="0 0 0 0 0 0 0 0 0 0 0 0 0 0 0 0 0 0 127 0" result="hardAlpha"/>
<feOffset dy="4"/>
<feGaussianBlur stdDeviation="2"/>
<feComposite in2="hardAlpha" operator="out"/>
<feColorMatrix type="matrix" values="0 0 0 0 1 0 0 0 0 1 0 0 0 0 1 0 0 0 1 0"/>
<feBlend mode="normal" in2="BackgroundImageFix" result="effect1_dropShadow_33_9"/>
<feBlend mode="normal" in="SourceGraphic" in2="effect1_dropShadow_33_9" result="shape"/>
</filter>
<filter id="filter16_d_33_9" x="140.5" y="41.5" width="6.38034" height="10.3432" filterUnits="userSpaceOnUse" color-interpolation-filters="sRGB">
<feFlood flood-opacity="0" result="BackgroundImageFix"/>
<feColorMatrix in="SourceAlpha" type="matrix" values="0 0 0 0 0 0 0 0 0 0 0 0 0 0 0 0 0 0 127 0" result="hardAlpha"/>
<feOffset dy="4"/>
<feComposite in2="hardAlpha" operator="out"/>
<feColorMatrix type="matrix" values="0 0 0 0 0 0 0 0 0 0 0 0 0 0 0 0 0 0 0.25 0"/>
<feBlend mode="normal" in2="BackgroundImageFix" result="effect1_dropShadow_33_9"/>
<feBlend mode="normal" in="SourceGraphic" in2="effect1_dropShadow_33_9" result="shape"/>
</filter>
<filter id="filter17_d_33_9" x="140.5" y="66.5" width="6.38034" height="10.3432" filterUnits="userSpaceOnUse" color-interpolation-filters="sRGB">
<feFlood flood-opacity="0" result="BackgroundImageFix"/>
<feColorMatrix in="SourceAlpha" type="matrix" values="0 0 0 0 0 0 0 0 0 0 0 0 0 0 0 0 0 0 127 0" result="hardAlpha"/>
<feOffset dy="4"/>
<feComposite in2="hardAlpha" operator="out"/>
<feColorMatrix type="matrix" values="0 0 0 0 0 0 0 0 0 0 0 0 0 0 0 0 0 0 0.25 0"/>
<feBlend mode="normal" in2="BackgroundImageFix" result="effect1_dropShadow_33_9"/>
<feBlend mode="normal" in="SourceGraphic" in2="effect1_dropShadow_33_9" result="shape"/>
</filter>
<filter id="filter18_d_33_9" x="105" y="95" width="38" height="41" filterUnits="userSpaceOnUse" color-interpolation-filters="sRGB">
<feFlood flood-opacity="0" result="BackgroundImageFix"/>
<feColorMatrix in="SourceAlpha" type="matrix" values="0 0 0 0 0 0 0 0 0 0 0 0 0 0 0 0 0 0 127 0" result="hardAlpha"/>
<feOffset dy="4"/>
<feGaussianBlur stdDeviation="2"/>
<feComposite in2="hardAlpha" operator="out"/>
<feColorMatrix type="matrix" values="0 0 0 0 0 0 0 0 0 0 0 0 0 0 0 0 0 0 0.25 0"/>
<feBlend mode="normal" in2="BackgroundImageFix" result="effect1_dropShadow_33_9"/>
<feBlend mode="normal" in="SourceGraphic" in2="effect1_dropShadow_33_9" result="shape"/>
</filter>
<filter id="filter19_d_33_9" x="152" y="95" width="38" height="41" filterUnits="userSpaceOnUse" color-interpolation-filters="sRGB">
<feFlood flood-opacity="0" result="BackgroundImageFix"/>
<feColorMatrix in="SourceAlpha" type="matrix" values="0 0 0 0 0 0 0 0 0 0 0 0 0 0 0 0 0 0 127 0" result="hardAlpha"/>
<feOffset dy="4"/>
<feGaussianBlur stdDeviation="2"/>
<feComposite in2="hardAlpha" operator="out"/>
<feColorMatrix type="matrix" values="0 0 0 0 0 0 0 0 0 0 0 0 0 0 0 0 0 0 0.25 0"/>
<feBlend mode="normal" in2="BackgroundImageFix" result="effect1_dropShadow_33_9"/>
<feBlend mode="normal" in="SourceGraphic" in2="effect1_dropShadow_33_9" result="shape"/>
</filter>
</defs>
</svg>
