<svg width="304" height="181" viewBox="0 0 304 181" fill="none" xmlns="http://www.w3.org/2000/svg">
<g filter="url(#filter0_d_36_10)">
<line x1="200.902" y1="91.1368" x2="210.637" y2="81.0979" stroke="#333333" stroke-width="9" stroke-linecap="round"/>
</g>
<g filter="url(#filter1_d_36_10)">
<path d="M256.501 112.265C252.782 114.608 247.647 113.643 245.031 110.111L209.322 61.883C207.939 60.0157 207.485 57.7007 208.078 55.5453L214.764 31.2342C215.766 27.5926 219.487 25.2484 223.529 25.713L250.512 28.8142C252.904 29.0891 255.077 30.322 256.46 32.1892L292.169 80.4169C294.784 83.9494 293.89 88.7123 290.171 91.055L256.501 112.265Z" fill="#F5F5F5"/>
<path d="M236.724 49.3391C236.986 47.9836 236.1 46.672 234.745 46.4097C233.389 46.1474 232.078 47.0336 231.815 48.3892L231.81 48.4164C231.548 49.772 232.434 51.0835 233.789 51.3459C235.145 51.6082 236.457 50.7219 236.719 49.3663L236.724 49.3391ZM247.04 108.623L211.331 60.3953C210.385 59.117 210.108 57.5899 210.488 56.2082L217.175 31.8972C217.813 29.5763 220.285 27.8566 223.243 28.1966L250.227 31.2978C251.96 31.497 253.496 32.3885 254.45 33.6769L290.16 81.9046C291.909 84.268 291.326 87.3724 288.838 88.9398L255.169 110.15C252.556 111.795 248.878 111.104 247.04 108.623Z" stroke="white" stroke-width="5" stroke-linecap="round" stroke-linejoin="round"/>
</g>
<g filter="url(#filter2_d_36_10)">
<path d="M53.5 11.5L91.5 91.5" stroke="#333333" stroke-width="9" stroke-linecap="round"/>
</g>
<g filter="url(#filter3_d_36_10)">
<path d="M91.5 91.5H198.5" stroke="#333333" stroke-width="9" stroke-linecap="round"/>
</g>
<g filter="url(#filter4_d_36_10)">
<path d="M80 22L207 22" stroke="#333333" stroke-width="9" stroke-linecap="round"/>
</g>
<g filter="url(#filter5_d_36_10)">
<path d="M91 46L135.5 46.5" stroke="#333333" stroke-width="9" stroke-linecap="round"/>
</g>
<g filter="url(#filter6_d_36_10)">
<path d="M100 71L135.5 71.5" stroke="#333333" stroke-width="9" stroke-linecap="round"/>
</g>
<g filter="url(#filter7_d_36_10)">
<path d="M157.5 45.5L187.5 46.5" stroke="#333333" stroke-width="9" stroke-linecap="round"/>
</g>
<g filter="url(#filter8_d_36_10)">
<path d="M157.5 71.5L190.5 71.5" stroke="#333333" stroke-width="9" stroke-linecap="round"/>
</g>
<g filter="url(#filter9_d_36_10)">
<path d="M255.142 105.48C251.981 107.468 247.685 106.597 245.547 103.535L216.358 61.7315C215.228 60.1131 214.884 58.1163 215.417 56.2652L221.433 35.3864C222.334 32.2589 225.497 30.2698 228.884 30.7015L251.49 33.5834C253.494 33.839 255.298 34.9175 256.428 36.536L285.617 78.3393C287.755 81.4012 286.925 85.4949 283.764 87.4828L255.142 105.48Z" fill="#34D399"/>
<path d="M237.521 50.7185L237.516 50.7419M221.433 35.3864L215.417 56.2652C214.884 58.1163 215.228 60.1131 216.358 61.7315L245.547 103.535C247.685 106.597 251.981 107.468 255.142 105.48L283.764 87.4828C286.925 85.4949 287.755 81.4012 285.617 78.3393L256.428 36.536C255.298 34.9175 253.494 33.839 251.49 33.5834L228.884 30.7015C225.497 30.2698 222.334 32.2589 221.433 35.3864Z" stroke="#333333" stroke-width="6" stroke-linecap="round" stroke-linejoin="round"/>
</g>
<path d="M209.58 24.2241C238.701 16.5231 240.701 38.0232 238.701 49.5233" stroke="white" stroke-width="10" stroke-linecap="round" stroke-linejoin="round"/>
<path d="M209.58 24.2241C238.701 16.5231 240.701 38.0232 238.701 49.5233" stroke="#333333" stroke-width="5" stroke-linecap="round" stroke-linejoin="round"/>
<g filter="url(#filter10_d_36_10)">
<path d="M96.359 147.011C96.2823 146.238 95.9531 145.637 95.3714 145.208C94.7898 144.78 94.0004 144.566 93.0032 144.566C92.3256 144.566 91.7536 144.662 91.2869 144.854C90.8203 145.039 90.4624 145.298 90.2131 145.63C89.9702 145.963 89.8487 146.34 89.8487 146.762C89.8359 147.113 89.9094 147.42 90.0692 147.682C90.2354 147.944 90.4624 148.171 90.75 148.363C91.0376 148.548 91.37 148.711 91.7472 148.852C92.1243 148.986 92.527 149.101 92.9553 149.197L94.7195 149.619C95.576 149.811 96.3622 150.066 97.0781 150.386C97.794 150.706 98.4141 151.099 98.9382 151.565C99.4624 152.032 99.8683 152.582 100.156 153.214C100.45 153.847 100.6 154.573 100.607 155.391C100.6 156.593 100.293 157.635 99.6861 158.517C99.0852 159.392 98.2159 160.073 97.0781 160.559C95.9467 161.038 94.582 161.278 92.984 161.278C91.3988 161.278 90.0181 161.035 88.842 160.549C87.6722 160.064 86.7582 159.344 86.0998 158.392C85.4478 157.433 85.1058 156.248 85.0739 154.835H89.0913C89.136 155.493 89.3246 156.043 89.657 156.484C89.9957 156.919 90.4464 157.248 91.0089 157.472C91.5778 157.689 92.2202 157.798 92.9361 157.798C93.6392 157.798 94.2496 157.695 94.7674 157.491C95.2915 157.286 95.6974 157.002 95.9851 156.637C96.2727 156.273 96.4165 155.854 96.4165 155.381C96.4165 154.94 96.2855 154.57 96.0234 154.269C95.7678 153.969 95.3906 153.713 94.892 153.502C94.3999 153.291 93.7958 153.099 93.0799 152.927L90.9418 152.39C89.2862 151.987 87.979 151.358 87.0202 150.501C86.0614 149.645 85.5852 148.491 85.5916 147.04C85.5852 145.851 85.9016 144.812 86.5408 143.924C87.1864 143.035 88.0717 142.342 89.1967 141.843C90.3217 141.344 91.6001 141.095 93.032 141.095C94.4893 141.095 95.7614 141.344 96.848 141.843C97.9411 142.342 98.7912 143.035 99.3984 143.924C100.006 144.812 100.319 145.841 100.338 147.011H96.359ZM107.407 152.486V161H103.322V141.364H107.292V148.871H107.464C107.797 148.002 108.334 147.321 109.075 146.829C109.817 146.33 110.747 146.081 111.865 146.081C112.888 146.081 113.78 146.305 114.54 146.752C115.307 147.193 115.902 147.829 116.324 148.66C116.752 149.485 116.963 150.472 116.957 151.623V161H112.872V152.352C112.878 151.444 112.648 150.738 112.182 150.233C111.722 149.728 111.076 149.475 110.245 149.475C109.689 149.475 109.197 149.593 108.768 149.83C108.347 150.066 108.014 150.412 107.771 150.865C107.535 151.313 107.413 151.853 107.407 152.486ZM126.825 161.288C125.336 161.288 124.048 160.971 122.961 160.338C121.881 159.699 121.047 158.811 120.459 157.673C119.871 156.529 119.577 155.202 119.577 153.694C119.577 152.173 119.871 150.843 120.459 149.705C121.047 148.561 121.881 147.673 122.961 147.04C124.048 146.401 125.336 146.081 126.825 146.081C128.314 146.081 129.599 146.401 130.68 147.04C131.766 147.673 132.604 148.561 133.192 149.705C133.78 150.843 134.074 152.173 134.074 153.694C134.074 155.202 133.78 156.529 133.192 157.673C132.604 158.811 131.766 159.699 130.68 160.338C129.599 160.971 128.314 161.288 126.825 161.288ZM126.844 158.124C127.522 158.124 128.088 157.932 128.541 157.548C128.995 157.158 129.337 156.628 129.567 155.957C129.804 155.286 129.922 154.522 129.922 153.665C129.922 152.809 129.804 152.045 129.567 151.374C129.337 150.702 128.995 150.172 128.541 149.782C128.088 149.392 127.522 149.197 126.844 149.197C126.16 149.197 125.585 149.392 125.118 149.782C124.658 150.172 124.31 150.702 124.073 151.374C123.843 152.045 123.728 152.809 123.728 153.665C123.728 154.522 123.843 155.286 124.073 155.957C124.31 156.628 124.658 157.158 125.118 157.548C125.585 157.932 126.16 158.124 126.844 158.124ZM136.73 166.523V146.273H140.757V148.746H140.939C141.118 148.35 141.377 147.947 141.715 147.538C142.061 147.123 142.508 146.778 143.058 146.503C143.614 146.222 144.304 146.081 145.129 146.081C146.203 146.081 147.193 146.362 148.101 146.925C149.009 147.481 149.734 148.321 150.278 149.446C150.821 150.565 151.093 151.968 151.093 153.656C151.093 155.298 150.827 156.685 150.297 157.817C149.773 158.942 149.057 159.795 148.149 160.377C147.248 160.952 146.238 161.24 145.119 161.24C144.327 161.24 143.652 161.109 143.096 160.847C142.546 160.585 142.096 160.255 141.744 159.859C141.393 159.456 141.124 159.05 140.939 158.641H140.814V166.523H136.73ZM140.728 153.636C140.728 154.512 140.849 155.276 141.092 155.928C141.335 156.58 141.687 157.088 142.147 157.452C142.607 157.81 143.166 157.989 143.825 157.989C144.49 157.989 145.052 157.807 145.512 157.443C145.972 157.072 146.321 156.561 146.557 155.909C146.8 155.25 146.922 154.493 146.922 153.636C146.922 152.786 146.803 152.038 146.567 151.393C146.33 150.747 145.982 150.242 145.522 149.878C145.062 149.513 144.496 149.331 143.825 149.331C143.16 149.331 142.597 149.507 142.137 149.859C141.683 150.21 141.335 150.709 141.092 151.354C140.849 152 140.728 152.761 140.728 153.636Z" fill="#333333"/>
</g>
<g filter="url(#filter11_d_36_10)">
<path d="M152.707 161V141.364H165.938V144.787H156.858V149.466H165.257V152.888H156.858V157.577H165.977V161H152.707ZM173.362 161.278C172.422 161.278 171.585 161.115 170.85 160.789C170.115 160.457 169.533 159.968 169.105 159.322C168.683 158.67 168.472 157.858 168.472 156.887C168.472 156.069 168.622 155.381 168.922 154.825C169.223 154.269 169.632 153.822 170.15 153.483C170.668 153.144 171.256 152.888 171.914 152.716C172.579 152.543 173.275 152.422 174.004 152.352C174.861 152.262 175.551 152.179 176.075 152.102C176.599 152.019 176.98 151.898 177.216 151.738C177.453 151.578 177.571 151.342 177.571 151.028V150.971C177.571 150.364 177.379 149.894 176.996 149.561C176.619 149.229 176.082 149.063 175.385 149.063C174.65 149.063 174.065 149.226 173.63 149.552C173.196 149.871 172.908 150.274 172.767 150.76L168.99 150.453C169.181 149.558 169.559 148.785 170.121 148.133C170.684 147.474 171.409 146.969 172.297 146.618C173.192 146.26 174.228 146.081 175.404 146.081C176.222 146.081 177.005 146.177 177.753 146.369C178.507 146.56 179.175 146.858 179.757 147.26C180.345 147.663 180.809 148.181 181.147 148.814C181.486 149.44 181.655 150.191 181.655 151.067V161H177.782V158.958H177.667C177.43 159.418 177.114 159.824 176.718 160.175C176.321 160.521 175.845 160.792 175.289 160.99C174.733 161.182 174.09 161.278 173.362 161.278ZM174.532 158.459C175.132 158.459 175.663 158.341 176.123 158.104C176.583 157.862 176.945 157.536 177.207 157.126C177.469 156.717 177.6 156.254 177.6 155.736V154.173C177.472 154.256 177.296 154.333 177.072 154.403C176.855 154.467 176.609 154.528 176.334 154.586C176.059 154.637 175.784 154.685 175.509 154.729C175.235 154.768 174.985 154.803 174.762 154.835C174.282 154.905 173.864 155.017 173.506 155.17C173.148 155.324 172.87 155.532 172.671 155.794C172.473 156.049 172.374 156.369 172.374 156.752C172.374 157.309 172.576 157.734 172.978 158.028C173.387 158.315 173.905 158.459 174.532 158.459ZM197.078 150.472L193.339 150.702C193.275 150.383 193.137 150.095 192.926 149.839C192.715 149.577 192.437 149.37 192.092 149.216C191.753 149.056 191.347 148.977 190.874 148.977C190.242 148.977 189.708 149.111 189.273 149.379C188.839 149.641 188.621 149.993 188.621 150.434C188.621 150.786 188.762 151.083 189.043 151.326C189.324 151.569 189.807 151.763 190.491 151.911L193.156 152.447C194.588 152.741 195.656 153.214 196.359 153.866C197.062 154.518 197.413 155.375 197.413 156.436C197.413 157.401 197.129 158.248 196.56 158.977C195.998 159.706 195.224 160.275 194.24 160.684C193.262 161.086 192.134 161.288 190.855 161.288C188.906 161.288 187.352 160.882 186.195 160.07C185.045 159.252 184.37 158.14 184.172 156.733L188.19 156.522C188.311 157.117 188.605 157.571 189.072 157.884C189.538 158.191 190.136 158.344 190.865 158.344C191.581 158.344 192.156 158.207 192.591 157.932C193.032 157.651 193.255 157.289 193.262 156.848C193.255 156.478 193.099 156.174 192.792 155.938C192.485 155.695 192.012 155.509 191.373 155.381L188.823 154.873C187.384 154.586 186.314 154.087 185.611 153.377C184.914 152.668 184.565 151.763 184.565 150.664C184.565 149.718 184.821 148.903 185.332 148.219C185.85 147.535 186.576 147.008 187.509 146.637C188.449 146.266 189.548 146.081 190.807 146.081C192.667 146.081 194.131 146.474 195.199 147.26C196.272 148.047 196.899 149.117 197.078 150.472ZM206.697 161.288C205.182 161.288 203.878 160.981 202.785 160.367C201.699 159.747 200.861 158.871 200.273 157.74C199.685 156.602 199.391 155.257 199.391 153.703C199.391 152.189 199.685 150.859 200.273 149.715C200.861 148.571 201.689 147.679 202.756 147.04C203.83 146.401 205.089 146.081 206.534 146.081C207.506 146.081 208.41 146.238 209.248 146.551C210.091 146.858 210.826 147.321 211.453 147.941C212.086 148.561 212.578 149.341 212.929 150.281C213.281 151.214 213.457 152.307 213.457 153.56V154.681H201.021V152.15H209.612C209.612 151.562 209.484 151.041 209.228 150.587C208.973 150.134 208.618 149.779 208.164 149.523C207.717 149.261 207.196 149.13 206.601 149.13C205.981 149.13 205.431 149.274 204.952 149.561C204.479 149.843 204.108 150.223 203.84 150.702C203.571 151.175 203.434 151.703 203.428 152.284V154.691C203.428 155.42 203.562 156.049 203.83 156.58C204.105 157.11 204.492 157.52 204.99 157.807C205.489 158.095 206.08 158.239 206.764 158.239C207.218 158.239 207.634 158.175 208.011 158.047C208.388 157.919 208.711 157.727 208.979 157.472C209.248 157.216 209.452 156.903 209.593 156.532L213.37 156.781C213.179 157.689 212.786 158.482 212.191 159.159C211.603 159.83 210.842 160.354 209.909 160.732C208.982 161.102 207.912 161.288 206.697 161.288Z" fill="#34D399"/>
</g>
<g filter="url(#filter12_d_36_10)">
<path d="M231.307 64.5817L250.697 92.5821" stroke="white" stroke-width="6" stroke-linecap="round"/>
</g>
<g filter="url(#filter13_d_36_10)">
<path d="M249.574 52.2809L269.863 81.3731" stroke="white" stroke-width="6" stroke-linecap="round"/>
</g>
<g filter="url(#filter14_d_36_10)">
<path d="M240.961 58.5129L260.254 87.5087" stroke="white" stroke-width="6" stroke-linecap="round"/>
</g>
<g filter="url(#filter15_d_36_10)">
<rect x="145.253" y="43.5" width="5" height="4" transform="rotate(43.4942 145.253 43.5)" fill="#333333"/>
</g>
<g filter="url(#filter16_d_36_10)">
<rect x="145.253" y="68.5" width="5" height="4" transform="rotate(43.4942 145.253 68.5)" fill="#333333"/>
</g>
<g filter="url(#filter17_d_36_10)">
<ellipse cx="126" cy="113.5" rx="15" ry="16.5" fill="white"/>
<path d="M137.5 113.5C137.5 121.001 132.045 126.5 126 126.5C119.955 126.5 114.5 121.001 114.5 113.5C114.5 105.999 119.955 100.5 126 100.5C132.045 100.5 137.5 105.999 137.5 113.5Z" stroke="#333333" stroke-width="7"/>
</g>
<g filter="url(#filter18_d_36_10)">
<ellipse cx="173" cy="113.5" rx="15" ry="16.5" fill="white"/>
<path d="M184.5 113.5C184.5 121.001 179.045 126.5 173 126.5C166.955 126.5 161.5 121.001 161.5 113.5C161.5 105.999 166.955 100.5 173 100.5C179.045 100.5 184.5 105.999 184.5 113.5Z" stroke="#333333" stroke-width="7"/>
</g>
<g filter="url(#filter19_d_36_10)">
<path d="M15 12L53 11" stroke="#333333" stroke-width="9" stroke-linecap="round"/>
</g>
<defs>
<filter id="filter0_d_36_10" x="188.402" y="72.5979" width="34.7347" height="35.0389" filterUnits="userSpaceOnUse" color-interpolation-filters="sRGB">
<feFlood flood-opacity="0" result="BackgroundImageFix"/>
<feColorMatrix in="SourceAlpha" type="matrix" values="0 0 0 0 0 0 0 0 0 0 0 0 0 0 0 0 0 0 127 0" result="hardAlpha"/>
<feOffset dy="4"/>
<feGaussianBlur stdDeviation="4"/>
<feComposite in2="hardAlpha" operator="out"/>
<feColorMatrix type="matrix" values="0 0 0 0 1 0 0 0 0 1 0 0 0 0 1 0 0 0 1 0"/>
<feBlend mode="normal" in2="BackgroundImageFix" result="effect1_dropShadow_36_10"/>
<feBlend mode="normal" in="SourceGraphic" in2="effect1_dropShadow_36_10" result="shape"/>
</filter>
<filter id="filter1_d_36_10" x="197.823" y="19.6545" width="105.845" height="107.89" filterUnits="userSpaceOnUse" color-interpolation-filters="sRGB">
<feFlood flood-opacity="0" result="BackgroundImageFix"/>
<feColorMatrix in="SourceAlpha" type="matrix" values="0 0 0 0 0 0 0 0 0 0 0 0 0 0 0 0 0 0 127 0" result="hardAlpha"/>
<feOffset dy="4"/>
<feGaussianBlur stdDeviation="5"/>
<feComposite in2="hardAlpha" operator="out"/>
<feColorMatrix type="matrix" values="0 0 0 0 1 0 0 0 0 1 0 0 0 0 1 0 0 0 1 0"/>
<feBlend mode="normal" in2="BackgroundImageFix" result="effect1_dropShadow_36_10"/>
<feBlend mode="normal" in="SourceGraphic" in2="effect1_dropShadow_36_10" result="shape"/>
</filter>
<filter id="filter2_d_36_10" x="38.999" y="0.998962" width="67.0021" height="109.002" filterUnits="userSpaceOnUse" color-interpolation-filters="sRGB">
<feFlood flood-opacity="0" result="BackgroundImageFix"/>
<feColorMatrix in="SourceAlpha" type="matrix" values="0 0 0 0 0 0 0 0 0 0 0 0 0 0 0 0 0 0 127 0" result="hardAlpha"/>
<feOffset dy="4"/>
<feGaussianBlur stdDeviation="5"/>
<feComposite in2="hardAlpha" operator="out"/>
<feColorMatrix type="matrix" values="0 0 0 0 1 0 0 0 0 1 0 0 0 0 1 0 0 0 1 0"/>
<feBlend mode="normal" in2="BackgroundImageFix" result="effect1_dropShadow_36_10"/>
<feBlend mode="normal" in="SourceGraphic" in2="effect1_dropShadow_36_10" result="shape"/>
</filter>
<filter id="filter3_d_36_10" x="77" y="81" width="136" height="29" filterUnits="userSpaceOnUse" color-interpolation-filters="sRGB">
<feFlood flood-opacity="0" result="BackgroundImageFix"/>
<feColorMatrix in="SourceAlpha" type="matrix" values="0 0 0 0 0 0 0 0 0 0 0 0 0 0 0 0 0 0 127 0" result="hardAlpha"/>
<feOffset dy="4"/>
<feGaussianBlur stdDeviation="5"/>
<feComposite in2="hardAlpha" operator="out"/>
<feColorMatrix type="matrix" values="0 0 0 0 1 0 0 0 0 1 0 0 0 0 1 0 0 0 1 0"/>
<feBlend mode="normal" in2="BackgroundImageFix" result="effect1_dropShadow_36_10"/>
<feBlend mode="normal" in="SourceGraphic" in2="effect1_dropShadow_36_10" result="shape"/>
</filter>
<filter id="filter4_d_36_10" x="65.5" y="11.5" width="156" height="29" filterUnits="userSpaceOnUse" color-interpolation-filters="sRGB">
<feFlood flood-opacity="0" result="BackgroundImageFix"/>
<feColorMatrix in="SourceAlpha" type="matrix" values="0 0 0 0 0 0 0 0 0 0 0 0 0 0 0 0 0 0 127 0" result="hardAlpha"/>
<feOffset dy="4"/>
<feGaussianBlur stdDeviation="5"/>
<feComposite in2="hardAlpha" operator="out"/>
<feColorMatrix type="matrix" values="0 0 0 0 1 0 0 0 0 1 0 0 0 0 1 0 0 0 1 0"/>
<feBlend mode="normal" in2="BackgroundImageFix" result="effect1_dropShadow_36_10"/>
<feBlend mode="normal" in="SourceGraphic" in2="effect1_dropShadow_36_10" result="shape"/>
</filter>
<filter id="filter5_d_36_10" x="76.5" y="35.5" width="73.5" height="29.5" filterUnits="userSpaceOnUse" color-interpolation-filters="sRGB">
<feFlood flood-opacity="0" result="BackgroundImageFix"/>
<feColorMatrix in="SourceAlpha" type="matrix" values="0 0 0 0 0 0 0 0 0 0 0 0 0 0 0 0 0 0 127 0" result="hardAlpha"/>
<feOffset dy="4"/>
<feGaussianBlur stdDeviation="5"/>
<feComposite in2="hardAlpha" operator="out"/>
<feColorMatrix type="matrix" values="0 0 0 0 1 0 0 0 0 1 0 0 0 0 1 0 0 0 1 0"/>
<feBlend mode="normal" in2="BackgroundImageFix" result="effect1_dropShadow_36_10"/>
<feBlend mode="normal" in="SourceGraphic" in2="effect1_dropShadow_36_10" result="shape"/>
</filter>
<filter id="filter6_d_36_10" x="85.5" y="60.5" width="64.5" height="29.5" filterUnits="userSpaceOnUse" color-interpolation-filters="sRGB">
<feFlood flood-opacity="0" result="BackgroundImageFix"/>
<feColorMatrix in="SourceAlpha" type="matrix" values="0 0 0 0 0 0 0 0 0 0 0 0 0 0 0 0 0 0 127 0" result="hardAlpha"/>
<feOffset dy="4"/>
<feGaussianBlur stdDeviation="5"/>
<feComposite in2="hardAlpha" operator="out"/>
<feColorMatrix type="matrix" values="0 0 0 0 1 0 0 0 0 1 0 0 0 0 1 0 0 0 1 0"/>
<feBlend mode="normal" in2="BackgroundImageFix" result="effect1_dropShadow_36_10"/>
<feBlend mode="normal" in="SourceGraphic" in2="effect1_dropShadow_36_10" result="shape"/>
</filter>
<filter id="filter7_d_36_10" x="143" y="34.9999" width="59.0001" height="30.0001" filterUnits="userSpaceOnUse" color-interpolation-filters="sRGB">
<feFlood flood-opacity="0" result="BackgroundImageFix"/>
<feColorMatrix in="SourceAlpha" type="matrix" values="0 0 0 0 0 0 0 0 0 0 0 0 0 0 0 0 0 0 127 0" result="hardAlpha"/>
<feOffset dy="4"/>
<feGaussianBlur stdDeviation="5"/>
<feComposite in2="hardAlpha" operator="out"/>
<feColorMatrix type="matrix" values="0 0 0 0 1 0 0 0 0 1 0 0 0 0 1 0 0 0 1 0"/>
<feBlend mode="normal" in2="BackgroundImageFix" result="effect1_dropShadow_36_10"/>
<feBlend mode="normal" in="SourceGraphic" in2="effect1_dropShadow_36_10" result="shape"/>
</filter>
<filter id="filter8_d_36_10" x="143" y="61" width="62" height="29" filterUnits="userSpaceOnUse" color-interpolation-filters="sRGB">
<feFlood flood-opacity="0" result="BackgroundImageFix"/>
<feColorMatrix in="SourceAlpha" type="matrix" values="0 0 0 0 0 0 0 0 0 0 0 0 0 0 0 0 0 0 127 0" result="hardAlpha"/>
<feOffset dy="4"/>
<feGaussianBlur stdDeviation="5"/>
<feComposite in2="hardAlpha" operator="out"/>
<feColorMatrix type="matrix" values="0 0 0 0 1 0 0 0 0 1 0 0 0 0 1 0 0 0 1 0"/>
<feBlend mode="normal" in2="BackgroundImageFix" result="effect1_dropShadow_36_10"/>
<feBlend mode="normal" in="SourceGraphic" in2="effect1_dropShadow_36_10" result="shape"/>
</filter>
<filter id="filter9_d_36_10" x="208.171" y="27.6435" width="85.6327" height="89.9031" filterUnits="userSpaceOnUse" color-interpolation-filters="sRGB">
<feFlood flood-opacity="0" result="BackgroundImageFix"/>
<feColorMatrix in="SourceAlpha" type="matrix" values="0 0 0 0 0 0 0 0 0 0 0 0 0 0 0 0 0 0 127 0" result="hardAlpha"/>
<feOffset dy="4"/>
<feGaussianBlur stdDeviation="2"/>
<feComposite in2="hardAlpha" operator="out"/>
<feColorMatrix type="matrix" values="0 0 0 0 0 0 0 0 0 0 0 0 0 0 0 0 0 0 0.25 0"/>
<feBlend mode="normal" in2="BackgroundImageFix" result="effect1_dropShadow_36_10"/>
<feBlend mode="normal" in="SourceGraphic" in2="effect1_dropShadow_36_10" result="shape"/>
</filter>
<filter id="filter10_d_36_10" x="75.0739" y="135.095" width="86.0186" height="45.4276" filterUnits="userSpaceOnUse" color-interpolation-filters="sRGB">
<feFlood flood-opacity="0" result="BackgroundImageFix"/>
<feColorMatrix in="SourceAlpha" type="matrix" values="0 0 0 0 0 0 0 0 0 0 0 0 0 0 0 0 0 0 127 0" result="hardAlpha"/>
<feOffset dy="4"/>
<feGaussianBlur stdDeviation="5"/>
<feComposite in2="hardAlpha" operator="out"/>
<feColorMatrix type="matrix" values="0 0 0 0 1 0 0 0 0 1 0 0 0 0 1 0 0 0 1 0"/>
<feBlend mode="normal" in2="BackgroundImageFix" result="effect1_dropShadow_36_10"/>
<feBlend mode="normal" in="SourceGraphic" in2="effect1_dropShadow_36_10" result="shape"/>
</filter>
<filter id="filter11_d_36_10" x="142.707" y="135.364" width="80.75" height="39.924" filterUnits="userSpaceOnUse" color-interpolation-filters="sRGB">
<feFlood flood-opacity="0" result="BackgroundImageFix"/>
<feColorMatrix in="SourceAlpha" type="matrix" values="0 0 0 0 0 0 0 0 0 0 0 0 0 0 0 0 0 0 127 0" result="hardAlpha"/>
<feOffset dy="4"/>
<feGaussianBlur stdDeviation="5"/>
<feComposite in2="hardAlpha" operator="out"/>
<feColorMatrix type="matrix" values="0 0 0 0 1 0 0 0 0 1 0 0 0 0 1 0 0 0 1 0"/>
<feBlend mode="normal" in2="BackgroundImageFix" result="effect1_dropShadow_36_10"/>
<feBlend mode="normal" in="SourceGraphic" in2="effect1_dropShadow_36_10" result="shape"/>
</filter>
<filter id="filter12_d_36_10" x="224.306" y="61.5814" width="33.3906" height="42.001" filterUnits="userSpaceOnUse" color-interpolation-filters="sRGB">
<feFlood flood-opacity="0" result="BackgroundImageFix"/>
<feColorMatrix in="SourceAlpha" type="matrix" values="0 0 0 0 0 0 0 0 0 0 0 0 0 0 0 0 0 0 127 0" result="hardAlpha"/>
<feOffset dy="4"/>
<feGaussianBlur stdDeviation="2"/>
<feComposite in2="hardAlpha" operator="out"/>
<feColorMatrix type="matrix" values="0 0 0 0 1 0 0 0 0 1 0 0 0 0 1 0 0 0 1 0"/>
<feBlend mode="normal" in2="BackgroundImageFix" result="effect1_dropShadow_36_10"/>
<feBlend mode="normal" in="SourceGraphic" in2="effect1_dropShadow_36_10" result="shape"/>
</filter>
<filter id="filter13_d_36_10" x="242.573" y="49.2806" width="34.2895" height="43.0927" filterUnits="userSpaceOnUse" color-interpolation-filters="sRGB">
<feFlood flood-opacity="0" result="BackgroundImageFix"/>
<feColorMatrix in="SourceAlpha" type="matrix" values="0 0 0 0 0 0 0 0 0 0 0 0 0 0 0 0 0 0 127 0" result="hardAlpha"/>
<feOffset dy="4"/>
<feGaussianBlur stdDeviation="2"/>
<feComposite in2="hardAlpha" operator="out"/>
<feColorMatrix type="matrix" values="0 0 0 0 1 0 0 0 0 1 0 0 0 0 1 0 0 0 1 0"/>
<feBlend mode="normal" in2="BackgroundImageFix" result="effect1_dropShadow_36_10"/>
<feBlend mode="normal" in="SourceGraphic" in2="effect1_dropShadow_36_10" result="shape"/>
</filter>
<filter id="filter14_d_36_10" x="233.96" y="55.5126" width="33.2943" height="42.9964" filterUnits="userSpaceOnUse" color-interpolation-filters="sRGB">
<feFlood flood-opacity="0" result="BackgroundImageFix"/>
<feColorMatrix in="SourceAlpha" type="matrix" values="0 0 0 0 0 0 0 0 0 0 0 0 0 0 0 0 0 0 127 0" result="hardAlpha"/>
<feOffset dy="4"/>
<feGaussianBlur stdDeviation="2"/>
<feComposite in2="hardAlpha" operator="out"/>
<feColorMatrix type="matrix" values="0 0 0 0 1 0 0 0 0 1 0 0 0 0 1 0 0 0 1 0"/>
<feBlend mode="normal" in2="BackgroundImageFix" result="effect1_dropShadow_36_10"/>
<feBlend mode="normal" in="SourceGraphic" in2="effect1_dropShadow_36_10" result="shape"/>
</filter>
<filter id="filter15_d_36_10" x="132.5" y="37.5" width="26.3803" height="26.3432" filterUnits="userSpaceOnUse" color-interpolation-filters="sRGB">
<feFlood flood-opacity="0" result="BackgroundImageFix"/>
<feColorMatrix in="SourceAlpha" type="matrix" values="0 0 0 0 0 0 0 0 0 0 0 0 0 0 0 0 0 0 127 0" result="hardAlpha"/>
<feOffset dy="4"/>
<feGaussianBlur stdDeviation="5"/>
<feComposite in2="hardAlpha" operator="out"/>
<feColorMatrix type="matrix" values="0 0 0 0 1 0 0 0 0 1 0 0 0 0 1 0 0 0 1 0"/>
<feBlend mode="normal" in2="BackgroundImageFix" result="effect1_dropShadow_36_10"/>
<feBlend mode="normal" in="SourceGraphic" in2="effect1_dropShadow_36_10" result="shape"/>
</filter>
<filter id="filter16_d_36_10" x="132.5" y="62.5" width="26.3803" height="26.3432" filterUnits="userSpaceOnUse" color-interpolation-filters="sRGB">
<feFlood flood-opacity="0" result="BackgroundImageFix"/>
<feColorMatrix in="SourceAlpha" type="matrix" values="0 0 0 0 0 0 0 0 0 0 0 0 0 0 0 0 0 0 127 0" result="hardAlpha"/>
<feOffset dy="4"/>
<feGaussianBlur stdDeviation="5"/>
<feComposite in2="hardAlpha" operator="out"/>
<feColorMatrix type="matrix" values="0 0 0 0 1 0 0 0 0 1 0 0 0 0 1 0 0 0 1 0"/>
<feBlend mode="normal" in2="BackgroundImageFix" result="effect1_dropShadow_36_10"/>
<feBlend mode="normal" in="SourceGraphic" in2="effect1_dropShadow_36_10" result="shape"/>
</filter>
<filter id="filter17_d_36_10" x="101" y="91" width="50" height="53" filterUnits="userSpaceOnUse" color-interpolation-filters="sRGB">
<feFlood flood-opacity="0" result="BackgroundImageFix"/>
<feColorMatrix in="SourceAlpha" type="matrix" values="0 0 0 0 0 0 0 0 0 0 0 0 0 0 0 0 0 0 127 0" result="hardAlpha"/>
<feOffset dy="4"/>
<feGaussianBlur stdDeviation="5"/>
<feComposite in2="hardAlpha" operator="out"/>
<feColorMatrix type="matrix" values="0 0 0 0 1 0 0 0 0 1 0 0 0 0 1 0 0 0 1 0"/>
<feBlend mode="normal" in2="BackgroundImageFix" result="effect1_dropShadow_36_10"/>
<feBlend mode="normal" in="SourceGraphic" in2="effect1_dropShadow_36_10" result="shape"/>
</filter>
<filter id="filter18_d_36_10" x="148" y="91" width="50" height="53" filterUnits="userSpaceOnUse" color-interpolation-filters="sRGB">
<feFlood flood-opacity="0" result="BackgroundImageFix"/>
<feColorMatrix in="SourceAlpha" type="matrix" values="0 0 0 0 0 0 0 0 0 0 0 0 0 0 0 0 0 0 127 0" result="hardAlpha"/>
<feOffset dy="4"/>
<feGaussianBlur stdDeviation="5"/>
<feComposite in2="hardAlpha" operator="out"/>
<feColorMatrix type="matrix" values="0 0 0 0 1 0 0 0 0 1 0 0 0 0 1 0 0 0 1 0"/>
<feBlend mode="normal" in2="BackgroundImageFix" result="effect1_dropShadow_36_10"/>
<feBlend mode="normal" in="SourceGraphic" in2="effect1_dropShadow_36_10" result="shape"/>
</filter>
<filter id="filter19_d_36_10" x="0.499969" y="0.499939" width="67.0001" height="30.0001" filterUnits="userSpaceOnUse" color-interpolation-filters="sRGB">
<feFlood flood-opacity="0" result="BackgroundImageFix"/>
<feColorMatrix in="SourceAlpha" type="matrix" values="0 0 0 0 0 0 0 0 0 0 0 0 0 0 0 0 0 0 127 0" result="hardAlpha"/>
<feOffset dy="4"/>
<feGaussianBlur stdDeviation="5"/>
<feComposite in2="hardAlpha" operator="out"/>
<feColorMatrix type="matrix" values="0 0 0 0 1 0 0 0 0 1 0 0 0 0 1 0 0 0 1 0"/>
<feBlend mode="normal" in2="BackgroundImageFix" result="effect1_dropShadow_36_10"/>
<feBlend mode="normal" in="SourceGraphic" in2="effect1_dropShadow_36_10" result="shape"/>
</filter>
</defs>
</svg>
